<svg xmlns="http://www.w3.org/2000/svg" viewBox="0 0 577.67 400.68"><defs><style>.cls-1{fill:#fff;}.cls-2{fill:#b7d5eb;}.cls-3,.cls-4{fill:#ffdb57;}.cls-4{stroke:#ffdb57;stroke-miterlimit:10;stroke-width:5px;}.cls-5{fill:#3992c6;}.cls-6{fill:#e77e7e;}.cls-10,.cls-7{fill:#80badc;}.cls-8{fill:#54a5d4;}.cls-9{fill:#feeaab;}.cls-10{font-size:142.43px;font-family:Gabarito-ExtraBold, Gabarito;font-weight:800;}.cls-11{letter-spacing:-0.01em;}.cls-12{letter-spacing:-0.02em;}.cls-13{letter-spacing:0em;}.cls-14,.cls-15{fill:#3a92c6;}.cls-14{letter-spacing:0em;}</style></defs><g id="Layer_2" data-name="Layer 2"><g id="Layer_1-2" data-name="Layer 1"><path class="cls-1" d="M404.05,114.63A114.63,114.63,0,0,1,401,141.14l0,.13a6.17,6.17,0,0,1-.16.65,114.51,114.51,0,0,1-33.28,56.76c-.16.15-.32.3-.49.44h0a113.89,113.89,0,0,1-148.23,5.26l-.55-.45c-.67-.55-1.35-1.1-2-1.67-2.55-2.14-5-4.41-7.33-6.78-.6-.6-1.18-1.2-1.76-1.81-.36-.37-.71-.76-1.08-1.14l-1-1.14c-.76-.84-1.51-1.7-2.24-2.57-.39-.45-.76-.9-1.14-1.36-.07-.09-.14-.16-.2-.25-.42-.51-.83-1-1.24-1.54-.23-.28-.45-.57-.66-.86l-.89-1.15c-.4-.54-.81-1.07-1.19-1.62s-.79-1.08-1.17-1.64-.65-.93-1-1.41-.77-1.13-1.15-1.71l-.69-1.08-1.19-1.92c-.28-.45-.55-.91-.81-1.37s-.5-.82-.73-1.24c-.38-.65-.75-1.32-1.11-2-.21-.37-.4-.73-.6-1.1-.27-.52-.55-1-.81-1.56a2.28,2.28,0,0,1-.18-.35c-.31-.6-.61-1.21-.91-1.82-.11-.21-.21-.44-.32-.67-.26-.53-.5-1.05-.74-1.58-.17-.35-.33-.7-.47-1.06-.23-.51-.47-1-.68-1.55-.64-1.43-1.22-2.89-1.78-4.35-.1-.23-.18-.46-.26-.69a113.07,113.07,0,0,1-3.62-11.46c-.28-1.08-.54-2.16-.79-3.26-.2-.88-.39-1.76-.58-2.65l-.33-1.77c0-.19-.07-.38-.1-.57s-.11-.56-.15-.84a.9.9,0,0,1,0-.16c-.11-.67-.23-1.35-.34-2-.07-.45-.16-.91-.22-1.37-.19-1.53-.35-3.06-.53-4.61,0-.3-.07-.62-.09-.93h0c-.33-3.51-.5-7.06-.5-10.67C175.6,51.32,226.74,0,289.83,0S404.05,51.32,404.05,114.63Z"/><path class="cls-2" d="M282.51,171.54c-.23.09-.44.18-.67.29l-.06,0q-3,.66-6,1.1c-2.18.31-4.35.55-6.52.69A80.78,80.78,0,0,1,236.6,169a79.78,79.78,0,0,1-11.15-5,125,125,0,0,1-10.74-6.84c-6.86-4.69-13.48-9.71-19.93-14.93s-12.49-10.5-18.59-15.94c0,0-.07-.63-.09-.94l.66.32h0a278.63,278.63,0,0,0,38.9,16.17,166.76,166.76,0,0,0,22.23,5.53,101,101,0,0,0,10.91,1.28,115.62,115.62,0,0,0,12.07.17l1.78-.08c.36.22.72.44,1.09.65,8,4.62,12.73,12.08,12.73,20v1.35a4,4,0,0,1-.54,2C278.15,172.39,280.35,172,282.51,171.54Z"/><path class="cls-2" d="M401,141.12c0,.15-.07.3-.11.46s-.06.21-.08.32a8.53,8.53,0,0,1-5.1,2.29,27,27,0,0,0-4.16,1.14c-1.58.43-3.15.87-4.73,1.29-6.49,1.72-13,3.23-19.61,4.64-12.87,2.72-25.83,5-38.71,7.68-6.21,1.29-12.4,2.69-18.55,4.25-3.3.83-6.57,1.72-9.84,2.69-2.59.76-5.16,1.56-7.73,2.39l-2.39.82c-2,.68-4,1.42-6,2.22l-.13.06h0c-.64.16-1.3.31-2,.45l2.08-.84c0-.11,0-.21,0-.33V145.79c2.84-.65,5.64-1.41,8.42-2.22V167.9c2.58-.87,5.19-1.66,7.81-2.4h0c1.26-6.42,5.68-12.28,12.34-16.14a48.39,48.39,0,0,0,16.86-16.26l.68-.16c3.3-.76,6.66-1.49,10-2.09A117.11,117.11,0,0,1,354,129.3c18.46-.76,34.83,6.42,43.74,10.34C399.13,140.27,400.29,140.81,401,141.12Z"/><path class="cls-3" d="M302.88,201.36c0-.12,0-.24-.05-.36a4.07,4.07,0,0,0-.34-1h0a4.23,4.23,0,0,0-4.24-2.38l-.86.09c-.52.05-1,.1-1.56.13h0a96.43,96.43,0,0,1-17.82-.22,4.21,4.21,0,1,0-.88,8.38,104.7,104.7,0,0,0,22,0A4.21,4.21,0,0,0,302.88,201.36Zm5.23-17.13a4.21,4.21,0,0,0-4.92-3.35,80.35,80.35,0,0,1-30.13,0,4.21,4.21,0,0,0-4.92,3.35,4.32,4.32,0,0,0,.05,1.83,3.79,3.79,0,0,0,.29.77,4.18,4.18,0,0,0,3,2.33q4,.75,8,1.14h0c.83.09,1.66.16,2.49.22h0c2.06.14,4.1.21,6.16.21a89,89,0,0,0,16.64-1.57A4.22,4.22,0,0,0,308.11,184.23ZM337.48,78.7a57,57,0,1,0-77.94,77.94c5.34,3.1,8.52,7.83,8.52,12.67v1.35a4.21,4.21,0,0,0,1,2.69,2.18,2.18,0,0,0,.25.28,4.21,4.21,0,0,0,6.52-.68l.14-.25a4.06,4.06,0,0,0,.54-2v-1.35c0-7.87-4.76-15.33-12.73-20-.37-.21-.73-.43-1.09-.66a48.65,48.65,0,1,1,49.81.66c-6.67,3.86-11.08,9.71-12.35,16.14h0c0,.12-.05.24-.07.37a19.81,19.81,0,0,0-.3,3.44v1.35a4.21,4.21,0,1,0,8.42,0v-1.35a12.36,12.36,0,0,1,1.72-6.13c.07-.13.15-.25.23-.37h0a18.69,18.69,0,0,1,6.58-6.16A57.1,57.1,0,0,0,337.48,78.7Zm-47.91,90.14c-.51.17-1,.36-1.52.55l-2,.76-2.11.84c0,.11,0,.21,0,.32a4.21,4.21,0,0,0,8.37-.65v-2.77C291.41,168.19,290.49,168.51,289.57,168.84Z"/><path class="cls-4" d="M329.34,133.09a48.3,48.3,0,0,1-16.86,16.26c-6.67,3.86-11.08,9.71-12.35,16.14h0c-2.61.74-5.22,1.53-7.8,2.39V143.57c4.84-1.42,9.64-3,14.49-4.44C314.27,136.94,321.77,134.82,329.34,133.09Z"/><path class="cls-4" d="M283.92,171l-2.07.84-.07,0,.73-.31c-2.17.48-4.36.86-6.56,1.16a4.06,4.06,0,0,0,.54-2v-1.35c0-7.87-4.76-15.33-12.73-20-.37-.21-.73-.43-1.09-.66a126.88,126.88,0,0,0,21-2.85l.25-.06v24.88C283.91,170.77,283.92,170.88,283.92,171Z"/><path class="cls-4" d="M335.09,119.8a48.82,48.82,0,0,1-5.75,13.29c-7.57,1.73-15.07,3.85-22.52,6-4.85,1.44-9.65,3-14.49,4.44v-5.86a45.09,45.09,0,0,0,7.4-1.28,4.21,4.21,0,1,0-2.09-8.16,38,38,0,0,1-9.48,1.2h-.07a37.84,37.84,0,0,1-9.48-1.2,4.21,4.21,0,0,0-2.1,8.16,45.28,45.28,0,0,0,7.4,1.28v8.07l-.25.06a126.88,126.88,0,0,1-21,2.85,48.61,48.61,0,1,1,72.42-28.89Z"/><path class="cls-5" d="M367.47,198.66l-.48.44h0a113.89,113.89,0,0,1-148.24,5.25,5.44,5.44,0,0,1-.55-.45c1-.65,1.82-1.55,2.9-2.14l4.31-2.34c2.85-1.56,5.71-3.13,8.57-4.68,5.22-2.82,10.46-5.63,15.72-8.38a.17.17,0,0,0,.19.07l1.51-.39h.05c.17,0,.35-.09.53-.12a38.92,38.92,0,0,1,16.23.14,74,74,0,0,1,13.68,4.44h0c4.92,2.06,9.73,4.46,14.39,6.67l1.09.52h0c1.68.79,3.37,1.56,5.08,2.29h0a74.68,74.68,0,0,0,15,4.89,73.32,73.32,0,0,0,24.24.28A146.09,146.09,0,0,0,367.47,198.66Z"/><path class="cls-6" d="M176.91,132.19c.15,1,.33,2,.51,3C177.24,134.21,177.07,133.21,176.91,132.19Z"/><path class="cls-7" d="M282.51,171.54c-.23.09-.44.18-.67.29l-.06,0-1.62.68h0c-2.33,1-4.63,2.05-6.93,3.07q-8.86,4-17.51,8.42l-3.73,1.9c-.44.23-.88.45-1.31.69h0c-16.08,8.69-31.63,17.54-31.9,17.75a5.44,5.44,0,0,1-.55-.45c-.67-.54-1.35-1.1-2-1.67q-3.83-3.21-7.33-6.77c-.6-.6-1.18-1.2-1.76-1.81-.36-.37-.71-.76-1.08-1.14l-1-1.14c-.76-.84-1.51-1.7-2.23-2.58-.39-.45-.77-.9-1.14-1.36l-.2-.24c-.43-.52-.84-1-1.24-1.54-.23-.28-.45-.57-.67-.86s-.6-.77-.88-1.16-.81-1.07-1.19-1.61-.79-1.08-1.17-1.64-.65-.93-1-1.41-.77-1.14-1.15-1.72q-.34-.52-.69-1.08c-.4-.63-.8-1.26-1.19-1.91-.28-.45-.55-.91-.82-1.37s-.49-.83-.72-1.24c-.38-.66-.75-1.32-1.12-2l-.6-1.1c-.26-.51-.54-1-.8-1.55a2.86,2.86,0,0,1-.18-.35c-.31-.6-.61-1.21-.91-1.82-.11-.22-.21-.44-.32-.68-.26-.52-.5-1-.74-1.57-.17-.35-.33-.71-.47-1.06-.24-.51-.47-1-.69-1.55q-.94-2.16-1.77-4.36c-.1-.22-.18-.46-.26-.68a113.25,113.25,0,0,1-3.62-11.47c-.29-1.08-.54-2.16-.79-3.25-.2-.89-.4-1.77-.58-2.65l-.33-1.77c0-.19-.07-.39-.11-.58l-.15-.83-.36-2.2c-.07-.45-.14-.91-.19-1.37-.21-1.52-.6-5.21-.62-5.52.21.11,27.92,23.2,37.37,30,6.92,5,12.94,8.91,21.36,12.3a80.89,80.89,0,0,0,23.27,5.57,79.78,79.78,0,0,0,10.93.2c2.31-.12,4.63-.34,6.92-.66S280.35,172,282.51,171.54Z"/><path class="cls-8" d="M401,141.12l0,.13c-.06.22-.1.44-.16.65a114.57,114.57,0,0,1-33.29,56.76l-.48.44h0c-15.58,5.26-32.24,9.36-48.71,6.61A68.9,68.9,0,0,1,302.82,201c-2.35-1-4.68-2.05-7-3.15-5.43-2.58-10.81-5.31-16.36-7.54h0c-1.2-.48-2.41-.94-3.63-1.37a60.25,60.25,0,0,0-7.34-2.1,40.6,40.6,0,0,0-17.82-.22h0a4.7,4.7,0,0,0-.6.14l.33-.17c.34-.19.67-.36,1-.53h.05c9.39-4.86,18.94-9.43,28.7-13.51h0l1.62-.68.06,0,2.08-.84c.71-.29,1.4-.57,2.11-.83s1.34-.52,2-.77l1.53-.55c.92-.33,1.84-.64,2.76-.94,2.58-.87,5.19-1.66,7.81-2.4h0c1.74-.5,3.5-1,5.24-1.44,1.57-.43,3.16-.84,4.74-1.25,4.86-1.23,9.75-2.34,14.64-3.39,13-2.77,26.06-5.06,39.06-7.76,6.56-1.36,13.11-2.81,19.61-4.48q4.92-1.26,9.8-2.69c2-.59,4.09-.65,5.92-1.8a7.46,7.46,0,0,0,1.7-1.45Z"/><path class="cls-9" d="M299.73,136.43a45.09,45.09,0,0,1-7.4,1.28v30.18c-.92.3-1.84.62-2.76,1-.51.17-1,.36-1.52.55l-2,.76-2.11.84c0-.11,0-.22,0-.33V137.71a45.28,45.28,0,0,1-7.4-1.28,4.21,4.21,0,0,1,2.1-8.16,37.84,37.84,0,0,0,9.48,1.2h.07a38,38,0,0,0,9.48-1.2,4.21,4.21,0,1,1,2.09,8.16Z"/><text class="cls-10" transform="translate(0 358.81)">Li<tspan class="cls-11" x="107.39" y="0">t</tspan><tspan x="164.93" y="0">e</tspan><tspan class="cls-12" x="240.7" y="0">r</tspan><tspan class="cls-13" x="290.97" y="0">a</tspan><tspan class="cls-14" x="363.9" y="0">s</tspan><tspan class="cls-15" x="428.84" y="0">ea</tspan></text></g></g></svg>