<?xml version="1.0" encoding="UTF-8"?>
<svg id="Layer_2" data-name="Layer 2" xmlns="http://www.w3.org/2000/svg" viewBox="0 0 696.16 160">
  <defs>
    <style>
      .cls-1 {
        fill: #76b4ff;
      }

      .cls-1, .cls-2, .cls-3, .cls-4 {
        stroke-width: 0px;
      }

      .cls-2 {
        fill: #e6f0ff;
      }

      .cls-5 {
        fill: #fff5d7;
        stroke: #ffce8d;
        stroke-linecap: round;
        stroke-linejoin: round;
        stroke-width: 5px;
      }

      .cls-3 {
        fill: #399cff;
      }

      .cls-6 {
        font-family: MontserratRoman-Bold, Montserrat;
        font-size: 90px;
        font-variation-settings: 'wght' 700;
        font-weight: 700;
      }

      .cls-7 {
        fill: #1569ff;
      }

      .cls-4 {
        fill: #afcdf9;
      }

      .cls-8 {
        fill: #5fa0ff;
      }
    </style>
  </defs>
  <g id="Layer_1-2" data-name="Layer 1">
    <path class="cls-2" d="m160,80c0,.38,0,.77,0,1.15,0,.33-.01.66-.02.99,0,.31-.02.63-.03.95,0,.24-.02.48-.03.72,0,.2-.02.41-.03.61-.01.21-.02.41-.04.62-14.55,19.67-38.07,31.49-64.6,31.49-4.83,0-9.57-.43-14.16-1.25h0c-.12-.06-.24-.13-.35-.19-3.72-2.07-7.25-4.42-10.57-7.03-.03-.03-.07-.05-.1-.08-.35-.28-.69-.56-1.04-.84-.03-.03-.07-.05-.1-.08-9.05-7.11-19.66-12.31-31.25-14.99-1.52-.35-3.05-.66-4.61-.93-4.4-.75-8.93-1.14-13.54-1.14-1.9,0-3.79.07-5.65.2-4.43.31-8.75.98-12.95,1.98-.08-.52-.15-1.03-.22-1.56-.03-.21-.05-.41-.08-.62-.08-.63-.15-1.27-.21-1.91-.03-.29-.06-.57-.08-.86,0-.03,0-.07,0-.1-.03-.3-.05-.59-.07-.89-.05-.59-.09-1.19-.12-1.79-.01-.18-.02-.35-.03-.53-.03-.53-.05-1.06-.06-1.59,0-.19-.01-.37-.01-.56-.01-.59-.02-1.17-.02-1.76,0-.38,0-.77,0-1.15,0-.33.01-.67.02-1,0-.31.02-.63.03-.94,0-.23.02-.46.03-.69,0-.23.02-.45.03-.68.01-.29.03-.58.05-.87.01-.28.03-.55.06-.83.03-.34.05-.68.08-1.01.06-.67.13-1.35.21-2.02.07-.67.16-1.34.25-2,.05-.33.09-.66.15-.99.05-.33.1-.66.16-.99.04-.27.09-.54.14-.8.01-.09.03-.17.05-.26.05-.3.11-.61.17-.91.06-.3.11-.59.18-.89.09-.45.19-.9.29-1.35.04-.17.07-.33.11-.5.07-.3.13-.6.21-.89.04-.19.09-.38.14-.57.05-.22.11-.43.16-.65.16-.64.33-1.27.51-1.91.18-.63.37-1.26.56-1.89.07-.21.13-.42.2-.63.07-.22.14-.44.22-.66.09-.27.18-.55.27-.82.02-.05.04-.11.06-.16.1-.31.21-.61.32-.91.11-.3.21-.59.33-.89.15-.42.31-.83.47-1.24.11-.29.23-.57.34-.85.13-.33.27-.66.4-.98s.28-.65.42-.97c.02-.04.04-.08.05-.12.26-.59.53-1.19.8-1.77,0-.01.01-.03.02-.04.15-.32.3-.64.46-.96.15-.32.31-.63.47-.95.16-.31.32-.63.48-.94.19-.37.38-.74.58-1.1.13-.24.25-.47.38-.71.02-.04.05-.09.07-.13.11-.21.23-.42.35-.63.21-.38.43-.76.65-1.13.16-.28.32-.55.49-.82.01-.03.03-.05.05-.08.21-.34.41-.68.62-1.02.2-.32.4-.63.6-.95.18-.28.36-.55.54-.83.08-.13.16-.25.25-.37.16-.24.33-.49.49-.73.15-.22.3-.44.46-.66.11-.15.21-.31.32-.46.19-.27.38-.53.57-.79h0c.19-.26.38-.52.57-.77.17-.22.33-.45.5-.67.04-.05.08-.1.12-.15.13-.18.27-.35.41-.53.08-.11.16-.21.25-.32.14-.18.28-.36.43-.53.07-.08.13-.17.2-.25.16-.19.32-.39.48-.58.5-.61,1.01-1.21,1.53-1.8.16-.19.32-.37.49-.55.43-.48.86-.95,1.3-1.42.17-.18.34-.36.51-.54.21-.23.43-.45.65-.67.73-.75,1.47-1.48,2.23-2.19.23-.22.47-.44.7-.66.25-.23.5-.46.75-.69.25-.23.51-.46.76-.68.24-.21.47-.41.71-.62.04-.04.08-.07.12-.1.24-.21.48-.41.72-.61.26-.22.53-.44.79-.65.23-.19.45-.37.68-.55.07-.05.14-.11.21-.16.23-.18.46-.36.69-.54,1.63-1.26,3.31-2.46,5.03-3.59.29-.19.57-.37.86-.56,1.22-.78,2.46-1.53,3.73-2.24.19-.11.38-.22.57-.32.07-.04.15-.09.22-.13.24-.13.49-.27.73-.39.34-.19.69-.37,1.03-.55.23-.12.45-.23.67-.35.68-.34,1.37-.68,2.06-1,.28-.13.55-.26.83-.39.41-.19.83-.37,1.24-.55.55-.24,1.11-.48,1.67-.71.01,0,.03-.01.04-.02.89-.36,1.79-.71,2.69-1.04.31-.11.61-.22.92-.33.66-.23,1.33-.46,2-.67.26-.09.53-.17.79-.25.31-.1.63-.19.94-.29.31-.09.63-.19.95-.28,0,0,0,0,0,0,.31-.09.62-.17.93-.26.58-.16,1.16-.31,1.75-.45.17-.04.34-.08.51-.12.58-.14,1.16-.27,1.74-.4.25-.05.51-.11.76-.16.41-.09.81-.17,1.22-.24.18-.03.36-.07.54-.1.24-.05.49-.09.73-.13.26-.05.52-.09.78-.13.27-.05.55-.09.82-.13.31-.05.61-.09.92-.13.26-.04.51-.07.77-.1.15-.02.31-.04.46-.06.28-.03.56-.07.84-.1.31-.04.63-.07.94-.1.28-.03.55-.06.83-.08.4-.04.79-.07,1.19-.1.34-.03.68-.05,1.02-.07.2-.01.39-.03.59-.03.18-.01.37-.02.55-.03.3-.01.6-.03.9-.04.2,0,.4-.02.61-.02.16,0,.33-.01.49-.01.66-.02,1.33-.03,2-.03.29,0,.57,0,.86,0,.21,0,.41,0,.61,0,.2,0,.4,0,.6.01.29,0,.58.02.86.03.29,0,.58.02.87.03.2,0,.39.02.59.03.06,0,.12,0,.18.01.43.02.85.05,1.27.08.11,0,.21.01.32.02.3.02.61.05.91.07.37.03.74.07,1.11.11.33.03.67.07,1,.11.31.03.62.07.93.11.05,0,.1.01.15.02.31.04.61.08.92.12.61.08,1.21.17,1.81.27.12.02.23.04.34.06.2.03.4.07.59.1.16.03.31.05.47.08.25.04.49.09.74.14.32.06.64.13.96.19.01,0,.03,0,.04,0,.32.06.63.13.95.2.03,0,.06.01.09.02.29.07.59.13.87.2.32.07.65.15.97.23.3.07.61.15.91.23.02,0,.04,0,.05.01.32.08.64.17.95.25.31.08.61.17.91.25.04.01.08.02.12.03.29.08.58.17.87.25.31.09.63.19.94.29.29.09.59.18.87.28.05.02.11.03.16.05.25.08.5.16.75.25.38.13.76.26,1.14.39.27.09.53.19.8.29.82.3,1.64.61,2.44.94.2.08.4.16.6.25.21.09.43.18.64.27,2.69,1.14,5.31,2.42,7.84,3.84.2.11.4.23.6.34.36.21.72.41,1.08.63.26.15.52.31.77.47.45.27.89.54,1.32.82.38.24.75.48,1.12.72.31.21.63.42.94.63.14.09.28.19.42.29.31.21.61.42.92.64.3.21.61.43.91.65.17.12.35.25.52.38.21.15.41.31.62.47.08.05.16.11.23.18.34.26.68.52,1.01.78.36.28.71.57,1.07.86.35.29.71.58,1.05.87.38.32.76.65,1.14.98.31.27.61.54.92.82.34.31.67.61,1.01.93.27.25.54.5.8.76.43.42.86.84,1.29,1.27.23.23.47.47.7.71.37.38.74.77,1.11,1.16.3.33.6.65.9.98.25.28.5.56.75.84.09.11.19.21.28.32.25.29.5.58.75.87.03.03.05.06.08.09.23.27.45.54.67.81.07.09.15.18.22.27.25.3.49.6.73.91.04.05.08.1.12.15.24.31.48.62.72.94.03.04.07.08.09.13.16.21.32.43.48.64.21.28.41.56.62.85.18.25.36.51.54.76.24.34.48.68.71,1.03h0c.26.38.51.76.76,1.15.21.33.43.66.64.99.27.43.54.85.8,1.28.09.15.18.29.27.44.11.19.23.38.34.57.09.15.18.31.27.47.2.34.39.68.58,1.02.2.37.4.73.6,1.1.02.04.04.07.06.11.2.37.39.73.58,1.1.01.02.02.04.03.05.21.41.41.81.62,1.22.22.45.44.9.65,1.36.09.19.18.37.26.56.44.96.86,1.92,1.27,2.89.1.23.19.47.29.7.09.23.19.47.28.7.1.25.19.5.29.75.12.31.23.61.34.92.93,2.54,1.74,5.15,2.41,7.8.11.44.22.87.32,1.31.08.35.16.7.24,1.06.04.2.09.4.13.6.16.75.31,1.51.45,2.28.04.2.07.41.11.61.04.23.08.47.12.7.05.31.1.62.15.93,0,.02,0,.04,0,.06.05.32.1.64.14.96.04.29.08.59.12.88.09.71.17,1.41.25,2.13.03.34.07.67.1,1.01.03.34.06.67.08,1.01.03.34.05.68.07,1.02.01.21.03.42.04.63.01.21.02.43.03.64v.02c.03.59.05,1.18.07,1.77.02.69.03,1.39.03,2.08Z"/>
    <path class="cls-2" d="m159.84,85.04c0,.08,0,.15-.01.23-.02.29-.04.59-.06.88-.03.34-.05.68-.08,1.01-.15,1.69-.35,3.36-.61,5.01-.04.29-.09.59-.14.88,0,.07-.02.13-.03.19-.03.2-.07.4-.1.59-.03.18-.06.35-.09.53-.03.18-.06.35-.1.53-.04.21-.08.43-.13.65-.02.09-.03.17-.05.26-.05.23-.09.45-.14.68-.03.15-.06.31-.1.46-.07.31-.14.61-.21.92-.09.39-.18.77-.27,1.16-.17.69-.35,1.38-.54,2.07-.04.17-.09.33-.14.5-.07.25-.14.5-.21.75-.01.05-.03.09-.04.14-.22.75-.45,1.5-.69,2.25-.11.32-.21.65-.32.97-.14.41-.28.81-.42,1.21-.18.51-.37,1.01-.56,1.52-.01.03-.02.05-.03.08-.2.53-.41,1.06-.62,1.58-.11.26-.21.53-.32.79-.08.19-.16.37-.23.55-.73,1.7-1.51,3.37-2.35,5.01-.15.28-.29.56-.44.84-.13.24-.25.48-.39.72-.22.41-.45.82-.67,1.22-.59,1.04-1.2,2.07-1.83,3.09-.32.51-.64,1.01-.97,1.51-.17.25-.33.5-.5.75-.17.25-.33.49-.5.74-.17.25-.34.49-.51.73-.13.19-.26.37-.39.55-.61.85-1.23,1.69-1.88,2.51-.13.17-.27.34-.4.51-.18.23-.37.47-.56.7-.93,1.15-1.9,2.28-2.9,3.39-.2.22-.4.44-.6.66-.15.16-.31.33-.46.49-.12.13-.25.26-.37.39-.19.2-.39.41-.58.61-.03.03-.06.06-.09.09-.18.19-.37.37-.55.55-.29.29-.57.57-.87.86-.19.19-.39.37-.58.56-.15.15-.31.3-.47.44-.14.13-.28.26-.42.39-.66.61-1.34,1.22-2.03,1.81-.22.19-.45.39-.68.58-.23.19-.45.38-.69.57-.23.19-.46.38-.69.57-.23.19-.46.37-.7.56-.57.45-1.14.89-1.72,1.32-.24.18-.48.36-.72.53-.22.17-.45.33-.67.49-.33.24-.67.48-1.01.71-.14.1-.29.19-.43.29-.17.11-.33.23-.5.34-.25.17-.49.33-.75.49-.25.16-.5.33-.75.49-2.05,1.31-4.17,2.53-6.34,3.65-.23.11-.45.23-.68.35-.27.13-.54.27-.81.4-.23.11-.46.22-.69.33-.1.05-.21.1-.31.15-.21.1-.41.19-.62.29-.01,0-.03.01-.04.02-.27.12-.53.24-.79.36-.33.15-.67.3-1,.44-.48.21-.97.41-1.45.61-1.13.46-2.27.9-3.43,1.31,0,0-.02,0-.03,0-.21.08-.43.15-.64.22-1.09.38-2.19.73-3.29,1.06-.18.05-.36.11-.54.16-.19.06-.39.11-.59.17-.29.08-.57.16-.86.24-.19.05-.39.1-.59.15-.24.06-.49.13-.73.19-.29.07-.57.14-.86.21-.03,0-.05.01-.08.02-.23.06-.47.11-.71.17-.2.05-.41.09-.61.14-.87.19-1.75.37-2.64.53-.06.01-.13.02-.19.03-.17.03-.35.06-.52.09-.91.16-1.83.31-2.75.43-.18.03-.35.05-.53.07-.36.05-.72.09-1.08.14-.13.02-.26.03-.39.05-.33.04-.67.07-1.01.11-.41.04-.81.08-1.22.11-.27.03-.53.05-.8.07-.29.02-.59.04-.88.06-.23.01-.45.03-.67.04-.26.02-.52.03-.77.04-.26.01-.51.02-.77.03-.3.01-.6.02-.9.03-.04,0-.08,0-.12,0-.21,0-.43.01-.65.01-.15,0-.31,0-.46,0-.31,0-.63,0-.94,0-.28,0-.57,0-.85,0-.2,0-.41,0-.61,0-.24,0-.49,0-.73-.01-.58-.02-1.16-.04-1.74-.07-.14,0-.29-.01-.43-.02-1.31-.07-2.61-.17-3.91-.31-.31-.03-.61-.06-.92-.1-.53-.06-1.07-.13-1.59-.2-.21-.03-.42-.06-.63-.09-.09-.01-.17-.02-.26-.04-.37-.05-.73-.11-1.1-.17-.06,0-.11-.02-.17-.03-.22-.03-.43-.07-.65-.11-.7-.12-1.39-.25-2.08-.39-.23-.05-.46-.09-.69-.14-.46-.09-.92-.19-1.37-.3-.23-.05-.46-.11-.68-.16-.46-.11-.91-.22-1.36-.33-.19-.05-.39-.1-.59-.15-.29-.08-.58-.15-.87-.23-.39-.11-.78-.22-1.17-.33-.02,0-.05-.01-.07-.02-.21-.06-.43-.13-.64-.19-.18-.05-.35-.11-.53-.16-.27-.09-.54-.17-.81-.26-.29-.09-.59-.19-.88-.29-.3-.1-.59-.2-.89-.3-.03-.01-.06-.02-.09-.03-.3-.11-.61-.21-.91-.32-.31-.11-.62-.23-.93-.35-.29-.11-.59-.22-.88-.33-.02,0-.04-.02-.06-.03-.61-.24-1.22-.49-1.83-.74-.27-.11-.54-.23-.81-.34-.34-.15-.68-.3-1.02-.45-.3-.13-.59-.27-.89-.41-.3-.14-.6-.28-.89-.42-.3-.14-.59-.29-.89-.43-.3-.15-.59-.29-.88-.44-.29-.15-.59-.3-.87-.45-1.46-.77-2.9-1.58-4.3-2.43-.55-.33-1.09-.67-1.64-1.02-2.29-1.47-4.51-3.06-6.63-4.75-.17-.14-.35-.28-.52-.42-.25-.21-.51-.41-.76-.62-.25-.21-.5-.42-.75-.63-.25-.21-.49-.42-.74-.64s-.49-.43-.73-.65c-.3-.27-.59-.54-.89-.81-.19-.17-.37-.34-.55-.51-.17-.16-.35-.33-.52-.49-.16-.15-.32-.31-.48-.47-.14-.14-.28-.27-.43-.41-.23-.22-.45-.45-.68-.67,0,0,0,0,0,0-.22-.22-.44-.44-.65-.67-.28-.29-.57-.59-.85-.89-.18-.19-.35-.37-.52-.56-.22-.24-.44-.48-.66-.72-.22-.24-.43-.49-.65-.73-.21-.24-.43-.49-.64-.74s-.42-.5-.63-.75c-.21-.25-.42-.5-.62-.75-.41-.51-.82-1.01-1.22-1.53-.2-.26-.4-.52-.59-.78-.19-.25-.39-.51-.58-.77,0,0-.01-.02-.02-.02-.18-.24-.35-.48-.53-.72-.02-.03-.04-.06-.06-.09-.37-.52-.74-1.05-1.1-1.58-.28-.4-.55-.81-.82-1.22-.27-.41-.53-.82-.79-1.24-.16-.26-.33-.52-.49-.78-.2-.32-.39-.65-.59-.97-.15-.25-.3-.51-.45-.77-.16-.28-.33-.57-.49-.85-.16-.29-.32-.57-.48-.86,8.38-2.98,17.41-4.6,26.81-4.6,10.86,0,21.22,2.17,30.67,6.09.54.23,1.08.46,1.62.69,3.44,1.43,7,2.63,10.67,3.57,2.12.55,4.27,1.01,6.46,1.38,3.48.59,7.03.96,10.65,1.09.96.04,1.92.05,2.89.05,5.47,0,10.81-.55,15.97-1.6-5.82-.29-11.47-1.2-16.9-2.67-4.02-1.09-7.91-2.48-11.65-4.15-2-.89-3.96-1.87-5.87-2.92,4.59.82,9.33,1.25,14.16,1.25,26.53,0,50.05-11.82,64.6-31.49Z"/>
    <path class="cls-5" d="m81.09,104.71v-22.63m0,0c2.18,0,4.35-.27,6.47-.81m-6.47.81c-2.18,0-4.35-.27-6.47-.81m16.17,32.24c-6.41,1.22-12.99,1.22-19.4,0m16.17,10.27c-4.3.45-8.63.45-12.93,0m16.17-9.36v-10.53c0-4.24,2.84-7.86,6.5-9.98,15.45-8.95,20.72-28.73,11.78-44.18-8.95-15.45-28.73-20.72-44.18-11.78-15.45,8.95-20.72,28.73-11.78,44.18,2.83,4.89,6.89,8.95,11.78,11.78,3.66,2.13,6.5,5.75,6.5,9.98v9.62"/>
    <path class="cls-3" d="m159.84,85.04c0,.08,0,.15-.01.23-.02.29-.04.59-.06.88-.03.34-.05.68-.08,1.01-.15,1.69-.35,3.36-.61,5.01-.04.29-.09.59-.14.88,0,.07-.02.13-.03.19-.03.2-.07.4-.1.59-.03.18-.06.35-.09.53-.03.18-.06.35-.1.53-.04.21-.08.43-.13.65-.02.09-.03.17-.05.26-.05.23-.09.45-.14.68-.03.15-.06.31-.1.46-.07.31-.14.61-.21.92-.09.39-.18.77-.27,1.16-.17.69-.35,1.38-.54,2.07-.04.17-.09.33-.14.5-.07.25-.14.5-.21.75-.01.05-.03.09-.04.14-1.26,1.29-2.56,2.54-3.91,3.74-10.38,9.3-23.2,15.92-37.38,18.79-5.82-.29-11.47-1.2-16.9-2.67-4.02-1.09-7.91-2.48-11.65-4.15-2-.89-3.96-1.87-5.87-2.92,4.59.82,9.33,1.25,14.16,1.25,26.53,0,50.05-11.82,64.6-31.49Z"/>
    <path class="cls-1" d="m115.51,125.02c-5.16,1.05-10.5,1.6-15.97,1.6-.97,0-1.93-.02-2.89-.05-3.62-.13-7.17-.49-10.65-1.09-2.18-.37-4.34-.83-6.46-1.38-3.67-.94-7.23-2.14-10.67-3.57-.54-.24-1.08-.47-1.62-.69-9.44-3.92-19.8-6.09-30.67-6.09-9.4,0-18.43,1.62-26.81,4.6-.14-.25-.27-.5-.41-.75-.12-.23-.25-.46-.37-.69-.02-.04-.04-.08-.06-.12-.12-.24-.24-.47-.37-.71-.13-.25-.25-.51-.38-.77-.15-.3-.29-.59-.43-.89-.23-.47-.45-.95-.67-1.43-.12-.26-.23-.52-.35-.78-.12-.26-.23-.53-.34-.79-.11-.27-.22-.53-.33-.79-.11-.25-.21-.51-.31-.76-.01-.03-.02-.06-.04-.09-.09-.23-.18-.46-.27-.69-.53-1.36-1.02-2.73-1.48-4.13-.08-.25-.17-.51-.25-.77-.01-.03-.02-.07-.03-.1-.08-.25-.15-.49-.23-.73-.01-.04-.03-.08-.04-.11-.08-.26-.16-.52-.23-.78-.08-.28-.16-.56-.24-.84-.15-.54-.3-1.08-.44-1.63-.06-.24-.12-.47-.18-.71-.09-.35-.17-.7-.25-1.05-.07-.29-.13-.57-.19-.86-.05-.23-.1-.45-.15-.68-.05-.25-.11-.51-.16-.77-.04-.19-.08-.37-.11-.56-.04-.21-.08-.43-.12-.65-.05-.27-.1-.53-.15-.8-.1-.58-.2-1.16-.29-1.75,4.2-1,8.52-1.67,12.95-1.98,1.87-.13,3.75-.2,5.65-.2,4.61,0,9.14.39,13.54,1.14,1.55.26,3.09.57,4.61.93,11.58,2.68,22.2,7.89,31.25,14.99.03.03.07.05.1.08.35.27.7.55,1.04.84.03.03.07.05.1.08,3.32,2.61,6.86,4.97,10.57,7.03.12.07.23.13.35.19h0c1.91,1.05,3.87,2.03,5.87,2.92,3.74,1.67,7.63,3.06,11.65,4.15,5.43,1.47,11.08,2.38,16.9,2.67Z"/>
    <path class="cls-4" d="m156.8,102.48c-.22.75-.45,1.5-.69,2.25-.24.73-.49,1.46-.75,2.18-.18.51-.37,1.01-.56,1.52-.01.03-.02.05-.03.08-.2.53-.41,1.06-.62,1.58-.11.26-.21.53-.32.79-.08.19-.16.37-.23.55-.73,1.7-1.51,3.37-2.35,5.01-.15.28-.29.56-.44.84-.13.24-.25.48-.39.72-.22.41-.45.82-.67,1.22-.59,1.04-1.2,2.07-1.83,3.09-.32.51-.64,1.01-.97,1.51-.17.25-.33.5-.5.75-.17.25-.33.49-.5.74-.17.25-.34.49-.51.73-.13.19-.26.37-.39.55-.61.85-1.23,1.69-1.88,2.51-.13.17-.27.34-.4.51-.18.23-.37.47-.56.7-.93,1.15-1.9,2.28-2.9,3.39-.2.22-.4.44-.6.66-.15.16-.31.33-.46.49-.12.13-.25.26-.37.39-.19.2-.39.41-.58.61-.03.03-.06.06-.09.09-.18.19-.37.37-.55.55-.29.29-.57.57-.87.86-.19.19-.39.37-.58.56-.15.15-.31.3-.47.44-.14.13-.28.26-.42.39-.66.61-1.34,1.22-2.03,1.81-.22.19-.45.39-.68.58-.23.19-.45.38-.69.57-.23.19-.46.38-.69.57-.23.19-.46.37-.7.56-.57.45-1.14.89-1.72,1.32-.24.18-.48.36-.72.53-.22.17-.45.33-.67.49-.33.24-.67.48-1.01.71-.14.1-.29.19-.43.29-.17.11-.33.23-.5.34-.25.17-.49.33-.75.49-.25.16-.5.33-.75.49-2.05,1.31-4.17,2.53-6.34,3.65-.23.11-.45.23-.68.35-.27.13-.54.27-.81.4-.23.11-.46.22-.69.33-.1.05-.21.1-.31.15-.21.1-.41.19-.62.29-.01,0-.03.01-.04.02-.27.12-.53.24-.79.36-.33.15-.67.3-1,.44-.48.21-.97.41-1.45.61-1.13.46-2.27.9-3.43,1.31,0,0-.02,0-.03,0-.21.08-.43.15-.64.22-1.09.38-2.19.73-3.29,1.06-.18.05-.36.11-.54.16-.19.06-.39.11-.59.17-.29.08-.57.16-.86.24-.19.05-.39.1-.59.15-.24.06-.49.13-.73.19-.29.07-.57.14-.86.21-.03,0-.05.01-.08.02-.23.06-.47.11-.71.17-.2.05-.41.09-.61.14-.87.19-1.75.37-2.64.53-.06.01-.13.02-.19.03-.17.03-.35.06-.52.09-.91.16-1.83.31-2.75.43-.18.03-.35.05-.53.07-.36.05-.72.09-1.08.14-.13.02-.26.03-.39.05-.33.04-.67.07-1.01.11-.41.04-.81.08-1.22.11-.27.03-.53.05-.8.07-.29.02-.59.04-.88.06-.23.01-.45.03-.67.04-.26.02-.52.03-.77.04-.26.01-.51.02-.77.03-.3.01-.6.02-.9.03-.04,0-.08,0-.12,0-.21,0-.43.01-.65.01-.15,0-.31,0-.46,0-.31,0-.63,0-.94,0-.28,0-.57,0-.85,0-.2,0-.41,0-.61,0-.24,0-.49,0-.73-.01-.58-.02-1.16-.04-1.74-.07-.14,0-.29-.01-.43-.02-1.31-.07-2.61-.17-3.91-.31-.31-.03-.61-.06-.92-.1-.53-.06-1.07-.13-1.59-.2-.21-.03-.42-.06-.63-.09-.09-.01-.17-.02-.26-.04-.37-.05-.73-.11-1.1-.17-.06,0-.11-.02-.17-.03-.22-.03-.43-.07-.65-.11-.7-.12-1.39-.25-2.08-.39-.23-.05-.46-.09-.69-.14-.46-.09-.92-.19-1.37-.3-.23-.05-.46-.11-.68-.16-.46-.11-.91-.22-1.36-.33-.19-.05-.39-.1-.59-.15-.29-.08-.58-.15-.87-.23-.39-.11-.78-.22-1.17-.33-.02,0-.05-.01-.07-.02-.21-.06-.43-.13-.64-.19-.18-.05-.35-.11-.53-.16-.27-.09-.54-.17-.81-.26-.29-.09-.59-.19-.88-.29-.3-.1-.59-.2-.89-.3-.03-.01-.06-.02-.09-.03-.3-.11-.61-.21-.91-.32-.31-.11-.62-.23-.93-.35-.29-.11-.59-.22-.88-.33-.02,0-.04-.02-.06-.03-.61-.24-1.22-.49-1.83-.74-.27-.11-.54-.23-.81-.34-.34-.15-.68-.3-1.02-.45-.3-.13-.59-.27-.89-.41-.3-.14-.6-.28-.89-.42-.3-.14-.59-.29-.89-.43-.3-.15-.59-.29-.88-.44-.29-.15-.59-.3-.87-.45-1.46-.77-2.9-1.58-4.3-2.43-.55-.33-1.09-.67-1.64-1.02-2.29-1.47-4.51-3.06-6.63-4.75-.17-.14-.35-.28-.52-.42-.25-.21-.51-.41-.76-.62-.25-.21-.5-.42-.75-.63-.25-.21-.49-.42-.74-.64s-.49-.43-.73-.65c-.3-.27-.59-.54-.89-.81-.19-.17-.37-.34-.55-.51-.17-.16-.35-.33-.52-.49-.16-.15-.32-.31-.48-.47-.14-.14-.28-.27-.43-.41-.23-.22-.45-.45-.68-.67,0,0,0,0,0,0-.22-.22-.44-.44-.65-.67-.28-.29-.57-.59-.85-.89-.18-.19-.35-.37-.52-.56-.22-.24-.44-.48-.66-.72-.22-.24-.43-.49-.65-.73-.21-.24-.43-.49-.64-.74s-.42-.5-.63-.75c-.21-.25-.42-.5-.62-.75-.41-.51-.82-1.01-1.22-1.53-.2-.26-.4-.52-.59-.78-.19-.25-.39-.51-.58-.77,0,0-.01-.02-.02-.02-.18-.24-.35-.48-.53-.72-.02-.03-.04-.06-.06-.09-.37-.52-.74-1.05-1.1-1.58-.55-.81-1.09-1.63-1.61-2.46-.16-.26-.33-.52-.49-.78-.2-.32-.39-.65-.59-.97-.15-.25-.3-.51-.45-.77-.16-.28-.33-.57-.49-.85-.16-.29-.32-.57-.48-.86,8.38-2.98,17.41-4.6,26.81-4.6,10.86,0,21.22,2.17,30.67,6.09.54.24,1.08.47,1.62.69,3.44,1.43,7,2.63,10.67,3.57,2.12.55,4.27,1.01,6.46,1.38,3.48.59,7.03.96,10.65,1.09.96.04,1.92.05,2.89.05,5.47,0,10.81-.55,15.97-1.6,14.18-2.87,27-9.5,37.38-18.79,1.35-1.2,2.65-2.45,3.91-3.74Z"/>
    <text class="cls-6" transform="translate(198.85 115.39)"><tspan class="cls-7" x="0" y="0">Litera</tspan><tspan class="cls-8" x="271.89" y="0">Sea</tspan></text>
  </g>
</svg>