<?xml version="1.0" encoding="UTF-8"?>
<svg id="Layer_2" data-name="Layer 2" xmlns="http://www.w3.org/2000/svg" viewBox="0 0 785.19 160">
  <defs>
    <style>
      .cls-1 {
        fill: #feeaab;
      }

      .cls-1, .cls-2, .cls-3, .cls-4, .cls-5, .cls-6 {
        stroke-width: 0px;
      }

      .cls-2 {
        fill: #ffdb57;
      }

      .cls-7, .cls-5 {
        fill: #80badc;
      }

      .cls-3 {
        fill: #b7d5eb;
      }

      .cls-8 {
        font-family: Gabarito-Bold, Gabarito;
        font-size: 131.83px;
        font-variation-settings: 'wght' 700;
        font-weight: 700;
      }

      .cls-4 {
        fill: #3992c6;
      }

      .cls-9 {
        fill: #3a92c6;
      }

      .cls-6 {
        fill: #54a5d4;
      }
    </style>
  </defs>
  <g id="Layer_1-2" data-name="Layer 1">
    <g>
      <g>
        <path class="cls-3" d="m92.97,104.91c-.21.09-.42.17-.63.26-1.71.38-3.43.7-5.17.95-1.87.27-3.76.47-5.64.59-9.56.62-19.2-.72-28.26-4.01-3.32-1.21-6.55-2.67-9.65-4.36-3.22-1.76-6.27-3.85-9.29-5.91-5.93-4.05-11.66-8.39-17.23-12.92-5.48-4.44-10.81-9.07-16.08-13.78h0c-.33-.3-.66-.59-.99-.89-.01-.13-.03-.27-.03-.4.32.16.64.32.95.47.19.1.38.19.57.28,0,0,.01.01.02.01,10.9,5.38,22.04,10.3,33.63,13.99,6.29,2.01,12.72,3.64,19.23,4.77,3.13.55,6.28.91,9.44,1.12,3.46.23,6.94.26,10.43.14.52-.02,1.03-.04,1.54-.07.31.2.62.38.94.57,6.89,4,11.01,10.45,11.01,17.26v1.17c0,.64-.17,1.24-.46,1.76,1.9-.26,3.8-.59,5.67-1Z"/>
        <path class="cls-3" d="m195.65,78.85c-.07.08-.14.16-.21.23-1.21,1.28-2.84,1.98-4.62,2.18-1.21.14-2.43.65-3.6.98-1.36.38-2.72.76-4.09,1.12-5.62,1.5-11.27,2.8-16.96,4.01-11.13,2.36-22.34,4.34-33.48,6.65-5.36,1.12-10.72,2.32-16.04,3.67-2.85.73-5.68,1.5-8.5,2.32-2.24.66-4.46,1.35-6.68,2.07-.69.23-1.38.46-2.07.7-1.73.6-3.46,1.24-5.17,1.93-.04.01-.07.03-.11.05t-.01,0c-.56.14-1.13.27-1.7.4.6-.25,1.2-.49,1.79-.73,0-.09-.01-.19-.01-.28v-21.51c2.45-.55,4.87-1.21,7.29-1.91v21.04c2.23-.75,4.48-1.43,6.74-2.07h0c1.09-5.56,4.91-10.62,10.68-13.96,6.03-3.5,10.99-8.31,14.58-14.06.19-.05.39-.09.58-.14,2.85-.66,5.76-1.28,8.66-1.81,3.99-.72,8.01-1.23,12.03-1.33,13.16-.32,25.89,3.74,37.78,9.04.93.41,1.85.84,2.78,1.27.07.03.13.06.2.09.05.03.09.05.14.07Z"/>
        <path class="cls-2" d="m110.59,130.7c-.01-.11-.03-.21-.05-.32-.06-.3-.16-.6-.29-.86h0c-.64-1.36-2.09-2.23-3.67-2.07-.25.03-.5.05-.74.07-.45.05-.89.09-1.35.12h0c-5.13.41-10.3.34-15.41-.19-1.99-.21-3.8,1.25-4,3.25-.21,2,1.24,3.8,3.25,4,3.15.33,6.33.5,9.51.5s6.36-.17,9.52-.5c2-.21,3.45-2,3.25-4Zm4.52-14.82c-.38-1.97-2.29-3.27-4.26-2.89-8.64,1.64-17.41,1.64-26.05,0-1.98-.38-3.88.92-4.26,2.89-.11.54-.08,1.08.05,1.58.06.23.14.45.25.66.48,1.01,1.42,1.79,2.61,2.01,2.29.44,4.58.77,6.88.99h0c.72.08,1.44.14,2.15.19h0c1.78.13,3.55.19,5.33.19,4.81,0,9.61-.46,14.39-1.36,1.97-.37,3.27-2.28,2.9-4.26Zm25.39-91.26c-6.6-11.4-17.25-19.55-29.98-22.94-12.73-3.39-26.02-1.62-37.42,4.98-23.53,13.62-31.59,43.86-17.96,67.4,2.36,4.08,5.3,7.79,8.7,11.02,2.8,2.66,5.91,5,9.27,6.94,4.62,2.68,7.37,6.77,7.37,10.95v1.17c0,.88.32,1.69.84,2.32.07.09.14.17.22.25.66.66,1.58,1.07,2.58,1.07,1.28,0,2.41-.66,3.05-1.66.05-.07.09-.15.13-.22.3-.52.46-1.12.46-1.76v-1.17c0-6.81-4.11-13.26-11.01-17.26-.32-.19-.63-.37-.94-.57-5.92-3.64-10.88-8.72-14.37-14.74-11.62-20.06-4.75-45.83,15.31-57.44,9.72-5.63,21.04-7.13,31.89-4.25,10.85,2.89,19.92,9.84,25.55,19.55,5.63,9.72,7.13,21.04,4.24,31.89-1.09,4.11-2.78,7.97-4.97,11.49-3.59,5.75-8.55,10.56-14.58,14.06-5.76,3.34-9.58,8.4-10.68,13.96h0c-.02.11-.05.22-.06.33-.18.98-.26,1.97-.26,2.97v1.17c0,2.01,1.63,3.64,3.64,3.64s3.64-1.63,3.64-3.64v-1.17c0-1.82.52-3.62,1.48-5.3.07-.11.13-.22.2-.32h0c1.27-2.05,3.21-3.89,5.69-5.33,9.23-5.35,16.09-13.25,20.17-22.31,6.35-14.01,6.07-30.79-2.21-45.08Zm-41.43,77.94c-.44.15-.88.32-1.32.48-.58.22-1.17.44-1.74.66-.61.24-1.21.48-1.82.72,0,.09.01.19.03.28.26,1.75,1.78,3.08,3.6,3.08,2.01,0,3.64-1.63,3.64-3.64v-2.39c-.8.26-1.6.53-2.39.81Z"/>
        <g>
          <path class="cls-2" d="m133.47,71.66c-3.59,5.75-8.55,10.56-14.58,14.06-5.76,3.34-9.58,8.4-10.68,13.96h0c-2.26.65-4.52,1.33-6.74,2.08v-21.04c4.19-1.23,8.33-2.6,12.52-3.83,6.44-1.9,12.93-3.73,19.48-5.23Z"/>
          <path class="cls-2" d="m94.2,104.43c-.6.24-1.2.48-1.79.73-.02,0-.04.01-.06.01.21-.09.42-.18.63-.26-1.87.41-3.77.74-5.67,1,.3-.52.46-1.12.46-1.76v-1.17c0-6.81-4.11-13.26-11.01-17.26-.32-.19-.63-.37-.94-.57,6.11-.32,12.19-1.15,18.15-2.47.07-.01.14-.03.21-.05v21.51c0,.1,0,.19.01.28Z"/>
          <path class="cls-2" d="m138.44,60.17c-1.09,4.11-2.78,7.97-4.97,11.49-6.55,1.5-13.03,3.32-19.48,5.23-4.19,1.24-8.34,2.61-12.52,3.83v-5.07c2.16-.19,4.3-.56,6.4-1.11,1.95-.5,3.13-2.48,2.62-4.43-.5-1.95-2.48-3.13-4.43-2.62-2.68.69-5.44,1.03-8.2,1.03h-.03s-.02,0-.03,0c-2.77,0-5.52-.34-8.2-1.03-1.95-.5-3.93.68-4.44,2.62-.5,1.95.68,3.93,2.62,4.43,2.1.54,4.24.91,6.4,1.11v6.98c-.07.01-.14.03-.21.05-5.97,1.32-12.05,2.15-18.15,2.47-5.92-3.64-10.88-8.72-14.37-14.74-11.62-20.06-4.75-45.83,15.31-57.44,9.72-5.63,21.04-7.13,31.89-4.25,10.85,2.89,19.92,9.84,25.55,19.55,5.63,9.72,7.13,21.04,4.24,31.89Z"/>
        </g>
        <path class="cls-4" d="m167.36,128.05c-17.8,16.74-41.75,27.02-68.05,27.02-23.56,0-45.22-8.23-62.27-21.98,1.04-.56,1.78-1.47,2.82-2.03,1.24-.68,2.48-1.35,3.72-2.03,2.47-1.35,4.95-2.7,7.42-4.05,4.52-2.44,9.04-4.87,13.6-7.25.03.05.09.07.17.05,14.12-3.99,27.71,3.38,40.14,9.29,5.87,2.79,11.9,5.4,18.3,6.66,6.89,1.35,14.02,1.22,20.96.24,7.92-1.13,15.64-3.36,23.21-5.93Z"/>
        <path class="cls-5" d="m92.97,104.91c-.21.09-.42.17-.63.26-.47.19-.93.39-1.4.59,0,0-.01,0-.02,0-2.01.86-4.01,1.76-6,2.66-5.11,2.3-10.15,4.74-15.14,7.27-1.07.54-2.15,1.09-3.22,1.65-.38.19-.76.39-1.14.59h0c-8.42,4.38-16.73,8.96-25.06,13.5-1.04.56-1.79,1.47-2.83,2.04-.03.02-.07.03-.1.05-2.44-1.97-4.78-4.06-7.01-6.25C14.11,111.29,3.28,89.74,1.03,65.74h0c-.03-.27-.05-.55-.07-.82-.01-.09-.02-.17-.03-.25.2.18.4.35.6.53,0,0,.01.01.02.01,10.16,9.05,20.57,17.85,31.73,25.64,5.86,4.09,11.82,7.94,18.47,10.63,6.42,2.6,13.23,4.23,20.13,4.83,3.15.27,6.31.32,9.45.17,2-.1,3.99-.29,5.98-.56,1.9-.26,3.8-.59,5.67-1Z"/>
        <path class="cls-6" d="m195.57,78.53c-.02.09-.04.17-.06.25-.02.1-.05.2-.07.3-4.46,19.16-14.49,36.21-28.27,49.36-.03-.03-.09-.05-.15-.03-.03,0-.05.02-.07.03-13.74,4.7-28.49,8.46-43.05,6.03-4.66-.77-9.05-2.27-13.35-4.09-2.04-.85-4.05-1.78-6.05-2.74h0c-4.7-2.23-9.35-4.59-14.15-6.52h0c-1.04-.42-2.09-.81-3.15-1.19-2.07-.73-4.19-1.34-6.35-1.81-5.08-1.11-10.32-1.36-15.41-.19h0c-.18.03-.34.07-.52.12.09-.05.19-.1.28-.15.3-.15.59-.3.89-.45,0,0,0,0,.01,0,8.14-4.2,16.4-8.16,24.85-11.68,0,0,.01,0,.02,0,.48-.21.97-.4,1.46-.6.6-.25,1.2-.49,1.79-.73.61-.25,1.21-.48,1.82-.72.58-.23,1.16-.44,1.74-.66.44-.16.88-.32,1.32-.48.79-.28,1.59-.56,2.39-.81,2.23-.75,4.48-1.43,6.74-2.07h0c1.51-.44,3.03-.85,4.54-1.26,1.36-.37,2.74-.72,4.11-1.07h0c4.2-1.07,8.42-2.03,12.66-2.93,11.23-2.4,22.53-4.38,33.77-6.72,5.68-1.17,11.34-2.44,16.96-3.87,2.84-.73,5.67-1.5,8.48-2.32,1.74-.51,3.54-.56,5.12-1.56.56-.35,1.05-.77,1.47-1.26.07-.07.12-.14.18-.21.03.01.05.03.08.04Z"/>
        <path class="cls-1" d="m107.87,74.55c-2.1.54-4.24.91-6.4,1.11v26.1c-.8.26-1.6.53-2.39.81-.44.15-.88.32-1.32.48-.58.22-1.17.44-1.74.66-.61.24-1.21.48-1.82.72,0-.09-.01-.19-.01-.28v-28.49c-2.16-.19-4.3-.56-6.4-1.11-1.95-.5-3.12-2.48-2.62-4.43.5-1.95,2.49-3.13,4.44-2.62,2.68.69,5.43,1.03,8.2,1.03,0,0,.01,0,.03,0h.03c2.76,0,5.52-.34,8.2-1.03,1.95-.5,3.93.68,4.43,2.62.5,1.95-.67,3.93-2.62,4.43Z"/>
      </g>
      <text class="cls-8" transform="translate(251.56 121.51)"><tspan class="cls-7" x="0" y="0">Litera</tspan><tspan class="cls-9" x="336.81" y="0">sea</tspan></text>
    </g>
  </g>
</svg>