<svg xmlns="http://www.w3.org/2000/svg" viewBox="0 0 859.76 179.55"><defs><style>.cls-1{font-size:142.43px;font-family:Gabarito-ExtraBold, Gabarito;font-weight:800;}.cls-1,.cls-12{fill:#80badc;}.cls-2{letter-spacing:-0.01em;}.cls-3{letter-spacing:-0.02em;}.cls-4{letter-spacing:0em;}.cls-5,.cls-6{fill:#3a92c6;}.cls-5{letter-spacing:0em;}.cls-7{fill:#b7d5eb;}.cls-8,.cls-9{fill:#ffdb57;}.cls-9{stroke:#ffdb57;stroke-miterlimit:10;stroke-width:5px;}.cls-10{fill:#3992c6;}.cls-11{fill:#e77e7e;}.cls-13{fill:#54a5d4;}.cls-14{fill:#feeaab;}</style></defs><g id="Layer_2" data-name="Layer 2"><g id="Layer_1-2" data-name="Layer 1"><text class="cls-1" transform="translate(282.08 136.69)">Li<tspan class="cls-2" x="107.39" y="0">t</tspan><tspan x="164.93" y="0">e</tspan><tspan class="cls-3" x="240.7" y="0">r</tspan><tspan class="cls-4" x="290.97" y="0">a</tspan><tspan class="cls-5" x="363.9" y="0">s</tspan><tspan class="cls-6" x="428.84" y="0">ea</tspan></text><path class="cls-7" d="M106.73,121.67c-.23.1-.45.18-.67.29l-.06,0c-2,.44-4,.82-6,1.11q-3.27.47-6.54.68a80.75,80.75,0,0,1-32.79-4.66,80.19,80.19,0,0,1-11.18-5c-3.74-2-7.27-4.47-10.77-6.86-6.88-4.7-13.52-9.74-20-15S6.22,81.69.1,76.24c0,0-.08-.63-.1-.95l.67.33h0a279.72,279.72,0,0,0,39,16.22A168,168,0,0,0,62,97.39a101.46,101.46,0,0,0,10.95,1.28,116.19,116.19,0,0,0,12.1.18l1.79-.09c.36.23.72.44,1.09.66,8,4.63,12.77,12.11,12.77,20v1.35a4,4,0,0,1-.55,2C102.36,122.53,104.56,122.15,106.73,121.67Z"/><path class="cls-7" d="M225.52,91.16c0,.15-.07.3-.11.46l-.09.32a8.49,8.49,0,0,1-5.11,2.3A27.15,27.15,0,0,0,216,95.38c-1.58.44-3.16.88-4.75,1.3-6.5,1.73-13.07,3.24-19.66,4.65-12.91,2.73-25.91,5-38.83,7.7-6.23,1.3-12.43,2.7-18.6,4.27q-5,1.24-9.87,2.69c-2.6.76-5.17,1.57-7.75,2.4l-2.41.82c-2,.69-4,1.43-6,2.23a.67.67,0,0,0-.12.06h0c-.64.16-1.3.31-2,.45l2.08-.84c0-.11,0-.21,0-.33v-25c2.85-.64,5.66-1.41,8.45-2.22V118c2.59-.87,5.21-1.67,7.83-2.41h0c1.26-6.44,5.7-12.31,12.37-16.18A48.54,48.54,0,0,0,153.7,83.11c.23-.07.45-.11.68-.16,4.81-1.15,8.8-1.88,10-2.09a73.58,73.58,0,0,1,14.12-.61,129.61,129.61,0,0,1,35.9,6.7C219.18,88.53,223,90.08,225.52,91.16Z"/><path class="cls-8" d="M127.16,151.58c0-.12,0-.24-.06-.36a3.56,3.56,0,0,0-.33-1h0a4.25,4.25,0,0,0-4.26-2.39l-.86.08c-.52.06-1,.1-1.57.14h0a97.08,97.08,0,0,1-17.88-.22,4.22,4.22,0,1,0-.87,8.4,105.17,105.17,0,0,0,22.06,0A4.22,4.22,0,0,0,127.16,151.58Zm5.25-17.18a4.24,4.24,0,0,0-4.94-3.36,80.41,80.41,0,0,1-30.22,0,4.22,4.22,0,0,0-4.88,5.2,4.07,4.07,0,0,0,.28.76,4.18,4.18,0,0,0,3,2.34q4,.76,8,1.14h0c.83.1,1.66.17,2.49.23h0c2.07.14,4.12.21,6.19.21A89.47,89.47,0,0,0,129,139.34,4.23,4.23,0,0,0,132.41,134.4ZM161.86,28.56A57.2,57.2,0,1,0,72.94,98.68a56.49,56.49,0,0,0,10.75,8c5.35,3.1,8.55,7.85,8.55,12.71v1.35a4.24,4.24,0,0,0,1,2.69,2.35,2.35,0,0,0,.26.29,4.22,4.22,0,0,0,6.53-.69,1.28,1.28,0,0,0,.15-.25,4.06,4.06,0,0,0,.54-2v-1.35c0-7.9-4.77-15.38-12.77-20-.37-.22-.73-.43-1.09-.66a48.81,48.81,0,1,1,50,.66c-6.68,3.87-11.11,9.74-12.38,16.18h0c0,.12-.05.25-.07.38a18.92,18.92,0,0,0-.31,3.45v1.35a4.23,4.23,0,0,0,8.45,0v-1.35a12.37,12.37,0,0,1,1.72-6.15l.24-.38h0a18.68,18.68,0,0,1,6.59-6.18,57.28,57.28,0,0,0,20.84-78.17ZM113.81,119l-1.53.55-2,.77c-.71.28-1.41.55-2.11.84a1.73,1.73,0,0,0,0,.32,4.23,4.23,0,0,0,8.4-.65V118C115.65,118.31,114.73,118.63,113.81,119Z"/><path class="cls-9" d="M153.7,83.11a48.54,48.54,0,0,1-16.92,16.31c-6.68,3.87-11.11,9.74-12.38,16.18h0c-2.62.75-5.24,1.54-7.82,2.4V93.62c4.86-1.42,9.66-3,14.53-4.45C138.58,87,146.1,84.85,153.7,83.11Z"/><path class="cls-9" d="M108.15,121.12l-2.09.84-.06,0,.73-.31c-2.18.48-4.38.86-6.58,1.16a4.06,4.06,0,0,0,.54-2v-1.35c0-7.9-4.77-15.38-12.77-20-.37-.22-.73-.43-1.09-.66a127.89,127.89,0,0,0,21.06-2.87l.24,0v25C108.13,120.9,108.14,121,108.15,121.12Z"/><path class="cls-9" d="M159.46,69.78a49.1,49.1,0,0,1-5.76,13.33c-7.6,1.74-15.12,3.86-22.59,6.06-4.87,1.44-9.67,3-14.53,4.45V87.74A45.33,45.33,0,0,0,124,86.46a4.22,4.22,0,0,0-2.1-8.18,38.14,38.14,0,0,1-9.51,1.2h-.06a38,38,0,0,1-9.51-1.2,4.22,4.22,0,1,0-2.11,8.18,45.7,45.7,0,0,0,7.42,1.28v8.1l-.24,0a127.89,127.89,0,0,1-21.06,2.87,48.75,48.75,0,1,1,72.63-29Z"/><path class="cls-10" d="M191.94,148.87c-.16.15-.32.3-.49.44h0a114.22,114.22,0,0,1-148.67,5.27c-.19-.14-.37-.29-.55-.45,1-.65,1.82-1.56,2.91-2.15,1.43-.78,2.88-1.56,4.31-2.35L58,145q7.86-4.24,15.77-8.4a.2.2,0,0,0,.2.06c.5-.14,1-.27,1.51-.39h0l.54-.11a38.77,38.77,0,0,1,16.27.14,73.43,73.43,0,0,1,13.72,4.45h0c4.94,2.06,9.76,4.47,14.44,6.69l1.09.51h0q2.52,1.2,5.1,2.3h0a73.84,73.84,0,0,0,15,4.91,73.2,73.2,0,0,0,24.31.28A147,147,0,0,0,191.94,148.87Z"/><path class="cls-11" d="M.82,82.21c.15,1,.33,2,.51,3Q1,83.73.82,82.21Z"/><path class="cls-12" d="M106.73,121.67c-.23.1-.45.18-.67.29l-.06,0c-.54.24-1.09.45-1.63.69h0c-2.34,1-4.65,2-6.95,3.08q-8.9,4-17.57,8.44c-1.24.63-2.49,1.26-3.73,1.91l-1.32.68h0c-16.13,8.72-31.73,17.59-32,17.81-.19-.14-.37-.29-.55-.45-.68-.55-1.35-1.1-2-1.67-2.55-2.15-5-4.43-7.35-6.8-.6-.6-1.18-1.2-1.76-1.81-.37-.38-.72-.76-1.09-1.15l-1-1.14c-.76-.85-1.51-1.71-2.24-2.59-.39-.45-.77-.9-1.14-1.36-.07-.09-.14-.16-.2-.25-.43-.51-.84-1-1.25-1.54-.22-.28-.45-.57-.66-.86s-.6-.77-.89-1.16c-.4-.54-.81-1.07-1.2-1.62s-.79-1.09-1.17-1.64-.65-.94-1-1.42-.78-1.14-1.15-1.72c-.24-.35-.46-.72-.7-1.08l-1.19-1.92c-.28-.45-.55-.92-.82-1.38s-.49-.82-.73-1.24c-.37-.66-.75-1.32-1.11-2-.21-.36-.4-.73-.6-1.11s-.55-1-.81-1.55a3,3,0,0,1-.18-.36c-.31-.6-.61-1.21-.91-1.82-.11-.22-.22-.44-.33-.68-.25-.52-.5-1-.74-1.58-.17-.35-.33-.7-.47-1.06s-.47-1-.69-1.55q-.95-2.16-1.78-4.37c-.1-.23-.18-.47-.26-.69a111.31,111.31,0,0,1-3.62-11.5c-.29-1.08-.55-2.17-.8-3.26-.2-.89-.4-1.77-.58-2.66-.12-.59-.22-1.18-.33-1.77,0-.2-.08-.39-.11-.58s-.11-.56-.15-.84c-.13-.73-.25-1.46-.36-2.2-.08-.45-.14-.91-.2-1.38C.42,79.31,0,75.61,0,75.29c.21.11,28,23.27,37.49,30.07,6.94,5,13,8.93,21.41,12.34a81.45,81.45,0,0,0,23.35,5.59,78.64,78.64,0,0,0,11,.19c2.32-.12,4.64-.33,6.93-.65S104.56,122.15,106.73,121.67Z"/><path class="cls-13" d="M225.52,91.16l0,.13c0,.22-.09.44-.16.65a114.92,114.92,0,0,1-33.38,56.93c-.16.15-.32.3-.49.44h0c-15.62,5.28-32.33,9.39-48.85,6.64a69.8,69.8,0,0,1-15.49-4.75c-2.36-1-4.69-2.06-7-3.17-5.45-2.58-10.84-5.32-16.41-7.55h0q-1.8-.74-3.63-1.38s-1-.34-2.41-.77h0c-1.82-.5-3.83-1.05-4.94-1.32a45.84,45.84,0,0,0-4.73-1,30.28,30.28,0,0,0-6.84-.4A26.22,26.22,0,0,0,74.33,137l.85-.45.25-.14a1.45,1.45,0,0,0,.14-.08c1.29-.7,6.53-3.54,14.25-7.2q7.49-3.56,14.53-6.48h0c.54-.24,1.09-.45,1.63-.69l.06,0,2.08-.84c.71-.29,1.41-.57,2.12-.84l2-.77,1.54-.55c.92-.33,1.85-.64,2.77-.94,2.59-.87,5.21-1.67,7.83-2.41h0c1.74-.5,3.51-1,5.26-1.45,1.57-.43,3.16-.83,4.75-1.24,4.87-1.24,9.78-2.35,14.69-3.4,13-2.78,26.12-5.08,39.17-7.79,6.58-1.36,13.15-2.82,19.66-4.49,9.76-2.51,12.39-3.12,15.35-4.46a7.05,7.05,0,0,0,1-.57A6.69,6.69,0,0,0,225.52,91.16Z"/><path class="cls-14" d="M124,86.46a45.33,45.33,0,0,1-7.42,1.28V118c-.93.3-1.85.62-2.77.95l-1.53.55-2,.77c-.71.28-1.41.55-2.11.84,0-.11,0-.22,0-.33V87.74a45.7,45.7,0,0,1-7.42-1.28,4.22,4.22,0,1,1,2.11-8.18,38,38,0,0,0,9.51,1.2h.06a38.14,38.14,0,0,0,9.51-1.2,4.22,4.22,0,0,1,2.1,8.18Z"/></g></g></svg>