<svg xmlns="http://www.w3.org/2000/svg" viewBox="0 0 577.67 351.96"><defs><style>.cls-1{font-size:142.43px;font-family:Gabarito-ExtraBold, Gabarito;font-weight:800;}.cls-1,.cls-12{fill:#80badc;}.cls-2{letter-spacing:-0.01em;}.cls-3{letter-spacing:-0.02em;}.cls-4{letter-spacing:0em;}.cls-5,.cls-6{fill:#3a92c6;}.cls-5{letter-spacing:0em;}.cls-7{fill:#b7d5eb;}.cls-8,.cls-9{fill:#ffdb57;}.cls-9{stroke:#ffdb57;stroke-miterlimit:10;stroke-width:5px;}.cls-10{fill:#3992c6;}.cls-11{fill:#e77e7e;}.cls-13{fill:#54a5d4;}.cls-14{fill:#feeaab;}</style></defs><g id="Layer_2" data-name="Layer 2"><g id="Layer_1-2" data-name="Layer 1"><text class="cls-1" transform="translate(0 310.08)">Li<tspan class="cls-2" x="107.39" y="0">t</tspan><tspan x="164.93" y="0">e</tspan><tspan class="cls-3" x="240.7" y="0">r</tspan><tspan class="cls-4" x="290.97" y="0">a</tspan><tspan class="cls-5" x="363.9" y="0">s</tspan><tspan class="cls-6" x="428.84" y="0">ea</tspan></text><path class="cls-7" d="M282.8,121.67c-.22.1-.44.18-.66.29l-.07,0c-2,.44-4,.82-6,1.11q-3.27.47-6.53.68a80.75,80.75,0,0,1-32.79-4.66,80.19,80.19,0,0,1-11.18-5c-3.74-2-7.27-4.47-10.77-6.86-6.88-4.7-13.53-9.74-20-15s-12.53-10.53-18.65-16c0,0-.07-.63-.09-.95l.66.33h0a279.72,279.72,0,0,0,39,16.22,167.26,167.26,0,0,0,22.29,5.54,101.46,101.46,0,0,0,11,1.28,116.19,116.19,0,0,0,12.1.18l1.79-.09c.36.23.72.44,1.09.66,8,4.63,12.77,12.11,12.77,20v1.35a4,4,0,0,1-.55,2C278.43,122.53,280.63,122.15,282.8,121.67Z"/><path class="cls-7" d="M401.59,91.16c0,.15-.07.3-.1.46l-.09.32a8.52,8.52,0,0,1-5.11,2.3,27.15,27.15,0,0,0-4.17,1.14c-1.58.44-3.16.88-4.75,1.3-6.5,1.73-13.07,3.24-19.67,4.65-12.9,2.73-25.9,5-38.82,7.7-6.23,1.3-12.43,2.7-18.61,4.27q-4.95,1.24-9.86,2.69c-2.6.76-5.18,1.57-7.75,2.4l-2.41.82c-2,.69-4,1.43-6,2.23l-.13.06h0c-.64.16-1.31.31-2,.45l2.08-.84c0-.11,0-.21,0-.33v-25c2.84-.64,5.66-1.41,8.45-2.22V118c2.58-.87,5.2-1.67,7.82-2.41h0c1.27-6.44,5.7-12.31,12.38-16.18a48.62,48.62,0,0,0,16.92-16.31c.22-.07.45-.11.67-.16,4.82-1.15,8.8-1.88,10.05-2.09a73.55,73.55,0,0,1,14.12-.61,129.61,129.61,0,0,1,35.9,6.7C395.26,88.53,399.07,90.08,401.59,91.16Z"/><path class="cls-8" d="M303.24,151.58c0-.12,0-.24-.06-.36a3.58,3.58,0,0,0-.34-1h0a4.22,4.22,0,0,0-4.25-2.39l-.86.08c-.52.06-1,.1-1.57.14h0a97,97,0,0,1-17.87-.22,4.22,4.22,0,1,0-.88,8.4,105.27,105.27,0,0,0,22.07,0A4.23,4.23,0,0,0,303.24,151.58Zm5.24-17.18a4.23,4.23,0,0,0-4.94-3.36,80.35,80.35,0,0,1-30.21,0,4.22,4.22,0,0,0-4.88,5.2,4.07,4.07,0,0,0,.28.76,4.16,4.16,0,0,0,3,2.34q4,.76,8,1.14h0c.83.1,1.66.17,2.49.23h0c2.07.14,4.12.21,6.18.21a89.5,89.5,0,0,0,16.69-1.58A4.22,4.22,0,0,0,308.48,134.4ZM337.93,28.56a57.2,57.2,0,0,0-99,57.34A57.63,57.63,0,0,0,249,98.68a56.49,56.49,0,0,0,10.75,8c5.35,3.1,8.55,7.85,8.55,12.71v1.35a4.18,4.18,0,0,0,1,2.69,3.47,3.47,0,0,0,.25.29,4.23,4.23,0,0,0,6.54-.69,1.28,1.28,0,0,0,.15-.25,4.17,4.17,0,0,0,.54-2v-1.35c0-7.9-4.77-15.38-12.77-20-.37-.22-.73-.43-1.09-.66a48.81,48.81,0,1,1,49.95.66c-6.68,3.87-11.11,9.74-12.38,16.18h0c0,.12-.05.25-.07.38a18.92,18.92,0,0,0-.31,3.45v1.35a4.23,4.23,0,0,0,8.45,0v-1.35a12.37,12.37,0,0,1,1.72-6.15c.08-.13.16-.25.23-.38h0a18.8,18.8,0,0,1,6.6-6.18,57.27,57.27,0,0,0,20.83-78.17Zm-48,90.4-1.53.55-2,.77-2.12.84c0,.11,0,.21,0,.32a4.23,4.23,0,0,0,8.4-.65V118C291.73,118.31,290.81,118.63,289.89,119Z"/><path class="cls-9" d="M329.78,83.11a48.62,48.62,0,0,1-16.92,16.31c-6.68,3.87-11.11,9.74-12.38,16.18h0c-2.62.75-5.24,1.54-7.82,2.4V93.62c4.85-1.42,9.66-3,14.52-4.45C314.66,87,322.18,84.85,329.78,83.11Z"/><path class="cls-9" d="M284.22,121.12l-2.08.84-.07,0,.73-.31c-2.17.48-4.37.86-6.57,1.16a4.17,4.17,0,0,0,.54-2v-1.35c0-7.9-4.77-15.38-12.77-20-.37-.22-.73-.43-1.09-.66a127.62,127.62,0,0,0,21-2.87l.25,0v25C284.21,120.9,284.22,121,284.22,121.12Z"/><path class="cls-9" d="M335.54,69.78a49.1,49.1,0,0,1-5.76,13.33c-7.6,1.74-15.12,3.86-22.6,6.06-4.86,1.44-9.67,3-14.52,4.45V87.74a45.7,45.7,0,0,0,7.42-1.28,4.22,4.22,0,1,0-2.1-8.18,38.14,38.14,0,0,1-9.51,1.2h-.07a38.14,38.14,0,0,1-9.51-1.2,4.22,4.22,0,0,0-2.1,8.18,45.33,45.33,0,0,0,7.42,1.28v8.1l-.25,0a127.62,127.62,0,0,1-21,2.87,48.75,48.75,0,1,1,72.63-29Z"/><path class="cls-10" d="M368,148.87l-.49.44h0a114.22,114.22,0,0,1-148.67,5.27c-.19-.14-.37-.29-.55-.45,1-.65,1.82-1.56,2.91-2.15l4.31-2.35,8.6-4.69q7.86-4.24,15.77-8.4a.18.18,0,0,0,.19.06c.51-.14,1-.27,1.52-.39h0l.54-.11a38.77,38.77,0,0,1,16.27.14,73.43,73.43,0,0,1,13.72,4.45h0c4.94,2.06,9.76,4.47,14.44,6.69l1.08.51h0q2.52,1.2,5.09,2.3h0a74.13,74.13,0,0,0,15,4.91,73.2,73.2,0,0,0,24.31.28A147,147,0,0,0,368,148.87Z"/><path class="cls-11" d="M176.89,82.21c.15,1,.34,2,.51,3Q177.13,83.73,176.89,82.21Z"/><path class="cls-12" d="M282.8,121.67c-.22.1-.44.18-.66.29l-.07,0c-.53.24-1.08.45-1.62.69h0c-2.34,1-4.65,2-7,3.08q-8.88,4-17.56,8.44c-1.24.63-2.49,1.26-3.73,1.91l-1.32.68h0c-16.13,8.72-31.74,17.59-32,17.81-.19-.14-.37-.29-.55-.45-.68-.55-1.35-1.1-2-1.67-2.56-2.15-5-4.43-7.35-6.8-.6-.6-1.18-1.2-1.76-1.81-.37-.38-.72-.76-1.09-1.15l-1-1.14c-.76-.85-1.51-1.71-2.24-2.59-.39-.45-.78-.9-1.14-1.36l-.21-.25c-.42-.51-.83-1-1.24-1.54-.23-.28-.45-.57-.67-.86s-.6-.77-.89-1.16c-.39-.54-.8-1.07-1.19-1.62s-.79-1.09-1.17-1.64l-1-1.42c-.38-.57-.77-1.14-1.14-1.72-.24-.35-.47-.72-.7-1.08-.4-.64-.8-1.27-1.19-1.92-.28-.45-.55-.92-.82-1.38s-.49-.82-.73-1.24c-.37-.66-.75-1.32-1.12-2-.2-.36-.39-.73-.6-1.11s-.54-1-.8-1.55a2,2,0,0,1-.18-.36c-.32-.6-.62-1.21-.92-1.82l-.32-.68c-.26-.52-.5-1-.74-1.58-.17-.35-.33-.7-.47-1.06s-.47-1-.69-1.55q-.94-2.16-1.78-4.37c-.1-.23-.18-.47-.26-.69a113.85,113.85,0,0,1-3.63-11.5c-.29-1.08-.54-2.17-.79-3.26-.2-.89-.4-1.77-.58-2.66q-.18-.88-.33-1.77c-.05-.2-.08-.39-.11-.58s-.11-.56-.15-.84c-.13-.73-.25-1.46-.37-2.2-.07-.45-.14-.91-.19-1.38-.2-1.52-.6-5.22-.62-5.54.21.11,28,23.27,37.48,30.07,6.95,5,13,8.93,21.42,12.34a81.45,81.45,0,0,0,23.35,5.59,78.64,78.64,0,0,0,11,.19c2.32-.12,4.64-.33,6.93-.65S280.63,122.15,282.8,121.67Z"/><path class="cls-13" d="M401.59,91.16l0,.13c-.05.22-.09.44-.16.65A114.92,114.92,0,0,1,368,148.87l-.49.44h0c-15.62,5.28-32.33,9.39-48.85,6.64a69.8,69.8,0,0,1-15.49-4.75c-2.36-1-4.69-2.06-7-3.17-5.46-2.58-10.84-5.32-16.42-7.55h0c-1.2-.49-2.41-1-3.64-1.38,0,0-1-.34-2.4-.77h0c-1.82-.5-3.83-1.05-4.94-1.32a46.43,46.43,0,0,0-4.73-1,30.32,30.32,0,0,0-6.84-.4,26.22,26.22,0,0,0-6.75,1.37l.84-.45.26-.14.14-.08c1.29-.7,6.53-3.54,14.25-7.2q7.49-3.56,14.53-6.48h0c.54-.24,1.09-.45,1.62-.69l.07,0,2.08-.84,2.11-.84,2-.77,1.54-.55c.92-.33,1.84-.64,2.77-.94,2.58-.87,5.2-1.67,7.82-2.41h0c1.75-.5,3.51-1,5.26-1.45,1.58-.43,3.17-.83,4.76-1.24,4.87-1.24,9.78-2.35,14.68-3.4,13-2.78,26.13-5.08,39.18-7.79,6.58-1.36,13.15-2.82,19.66-4.49,9.75-2.51,12.39-3.12,15.35-4.46a7.75,7.75,0,0,0,1-.57A6.25,6.25,0,0,0,401.59,91.16Z"/><path class="cls-14" d="M300.08,86.46a45.7,45.7,0,0,1-7.42,1.28V118c-.93.3-1.85.62-2.77.95l-1.53.55-2,.77-2.12.84c0-.11,0-.22,0-.33V87.74a45.33,45.33,0,0,1-7.42-1.28,4.22,4.22,0,0,1,2.1-8.18,38.14,38.14,0,0,0,9.51,1.2h.07a38.14,38.14,0,0,0,9.51-1.2,4.22,4.22,0,1,1,2.1,8.18Z"/></g></g></svg>