<svg xmlns="http://www.w3.org/2000/svg" viewBox="0 0 213.43 214.21"><defs><style>.cls-1{fill:#fff;}.cls-2{fill:#b7d5eb;}.cls-3,.cls-4{fill:#ffdb57;}.cls-4{stroke:#ffdb57;stroke-miterlimit:10;stroke-width:5px;}.cls-5{fill:#3992c6;}.cls-6{fill:#e77e7e;}.cls-7{fill:#80badc;}.cls-8{fill:#54a5d4;}.cls-9{fill:#feeaab;}</style></defs><g id="Layer_2" data-name="Layer 2"><g id="Layer_1-2" data-name="Layer 1"><path class="cls-1" d="M213.43,107.1a107.5,107.5,0,0,1-2.87,24.77l0,.12c-.05.21-.09.41-.15.61a107,107,0,0,1-31.1,53c-.15.14-.29.28-.45.41h0A106.4,106.4,0,0,1,40.33,191q-.26-.19-.51-.42c-.63-.51-1.26-1-1.88-1.56-2.38-2-4.66-4.12-6.85-6.33-.56-.56-1.1-1.12-1.64-1.69-.34-.35-.67-.71-1-1.07l-1-1.06c-.71-.79-1.41-1.59-2.09-2.41-.36-.42-.71-.84-1.06-1.27l-.19-.23c-.39-.48-.78-.95-1.16-1.44-.21-.26-.42-.53-.62-.8l-.83-1.08c-.37-.5-.75-1-1.11-1.51s-.74-1-1.09-1.53-.61-.87-.91-1.32-.72-1.06-1.07-1.6c-.22-.33-.43-.67-.65-1-.37-.59-.74-1.18-1.11-1.79-.26-.42-.51-.85-.76-1.28s-.46-.77-.68-1.16c-.35-.61-.7-1.23-1-1.86l-.56-1c-.25-.48-.51-1-.75-1.45a2.55,2.55,0,0,1-.17-.33c-.29-.56-.57-1.13-.85-1.7q-.15-.3-.3-.63-.36-.74-.69-1.47c-.16-.33-.31-.66-.44-1s-.44-1-.64-1.45c-.59-1.34-1.14-2.7-1.66-4.07-.09-.21-.17-.43-.24-.64a104.14,104.14,0,0,1-3.38-10.71c-.27-1-.51-2-.74-3-.19-.83-.37-1.65-.54-2.48-.11-.55-.21-1.1-.31-1.65,0-.18-.07-.36-.1-.54s-.1-.52-.14-.78a.77.77,0,0,1,0-.15c-.11-.63-.22-1.26-.32-1.9-.07-.42-.15-.85-.21-1.28C.87,120.82.72,119.4.55,118c0-.28-.07-.58-.09-.87h0Q0,112.15,0,107.1C0,48,47.78,0,106.72,0S213.43,48,213.43,107.1Z"/><path class="cls-2" d="M99.88,160.27l-.62.27-.06,0c-1.85.41-3.71.76-5.58,1-2,.29-4.06.51-6.09.64a75,75,0,0,1-41-9c-3.48-1.9-6.77-4.16-10-6.39-6.41-4.38-12.6-9.07-18.62-13.95S6.25,123,.55,118c0,0-.07-.59-.09-.88l.62.3h0a260.22,260.22,0,0,0,36.34,15.11,156.38,156.38,0,0,0,20.77,5.16,95.15,95.15,0,0,0,10.2,1.2,108.55,108.55,0,0,0,11.27.16l1.67-.08c.33.21.67.41,1,.61,7.45,4.32,11.9,11.29,11.9,18.65v1.26a3.73,3.73,0,0,1-.51,1.9C95.81,161.07,97.86,160.72,99.88,160.27Z"/><path class="cls-2" d="M210.54,131.85c0,.14-.06.28-.1.43s-.05.2-.08.3a8,8,0,0,1-4.76,2.14,25.78,25.78,0,0,0-3.89,1.06c-1.47.41-2.94.82-4.42,1.21-6.06,1.61-12.18,3-18.32,4.33-12,2.55-24.13,4.68-36.17,7.18-5.8,1.21-11.58,2.51-17.33,4-3.08.78-6.14,1.61-9.19,2.51-2.42.71-4.82,1.46-7.22,2.24l-2.24.76c-1.87.64-3.74,1.33-5.58,2.08l-.12.05h0c-.6.15-1.22.29-1.84.42l1.94-.78c0-.1,0-.2,0-.31V136.21c2.65-.6,5.27-1.31,7.87-2.07v22.73c2.41-.81,4.85-1.55,7.29-2.24h0c1.18-6,5.31-11.47,11.53-15.08a45.26,45.26,0,0,0,15.76-15.19l.63-.15c3.08-.71,6.22-1.39,9.36-2a107.17,107.17,0,0,1,13-1.44c17.25-.71,32.54,6,40.86,9.65C208.84,131.05,209.92,131.56,210.54,131.85Z"/><path class="cls-3" d="M118.91,188.14a2.11,2.11,0,0,0,0-.35,3.63,3.63,0,0,0-.31-.93h0a3.94,3.94,0,0,0-4-2.22l-.81.08-1.46.13h0a90.79,90.79,0,0,1-16.65-.21,3.94,3.94,0,1,0-.82,7.83,100,100,0,0,0,20.56,0A3.92,3.92,0,0,0,118.91,188.14Zm4.89-16a3.94,3.94,0,0,0-4.6-3.13,74.81,74.81,0,0,1-28.14,0,3.93,3.93,0,0,0-4.6,3.13,3.86,3.86,0,0,0,.31,2.42,3.91,3.91,0,0,0,2.82,2.18c2.47.47,4.94.83,7.43,1.07h0c.77.08,1.55.15,2.33.2h0c1.93.14,3.84.2,5.77.2a83.19,83.19,0,0,0,15.54-1.47A3.94,3.94,0,0,0,123.8,172.13Zm27.44-98.6A53.29,53.29,0,0,0,59,127a53.68,53.68,0,0,0,9.4,11.9,52.44,52.44,0,0,0,10,7.5c5,2.89,8,7.32,8,11.84v1.26a4,4,0,0,0,.91,2.51,2,2,0,0,0,.24.26,3.94,3.94,0,0,0,6.09-.63,1.41,1.41,0,0,0,.13-.24,3.73,3.73,0,0,0,.51-1.9v-1.26c0-7.36-4.45-14.33-11.9-18.65-.34-.2-.68-.4-1-.62a45.41,45.41,0,1,1,67.66-27,45.76,45.76,0,0,1-5.37,12.42,45.26,45.26,0,0,1-15.76,15.19c-6.22,3.61-10.35,9.07-11.53,15.08h0c0,.12,0,.23-.07.36a18.07,18.07,0,0,0-.28,3.21v1.26a3.94,3.94,0,0,0,7.87,0v-1.26a11.49,11.49,0,0,1,1.6-5.73l.21-.35h0a17.49,17.49,0,0,1,6.15-5.76,53.36,53.36,0,0,0,19.41-72.82Zm-44.76,84.21-1.43.52c-.63.24-1.26.47-1.88.72s-1.31.51-2,.78c0,.1,0,.2,0,.3a3.93,3.93,0,0,0,7.82-.61v-2.59C108.2,157.14,107.34,157.44,106.48,157.74Z"/><path class="cls-4" d="M143.64,124.35a45.26,45.26,0,0,1-15.76,15.19c-6.22,3.61-10.35,9.07-11.53,15.08h0c-2.44.7-4.88,1.44-7.29,2.24V134.14c4.52-1.33,9-2.81,13.53-4.15C129.56,127.94,136.56,126,143.64,124.35Z"/><path class="cls-4" d="M101.2,159.76l-1.94.78-.06,0,.68-.29c-2,.44-4.07.8-6.13,1.08a3.73,3.73,0,0,0,.51-1.9v-1.26c0-7.36-4.45-14.33-11.9-18.65-.34-.2-.68-.4-1-.62A119,119,0,0,0,101,136.26l.23,0v23.24C101.19,159.55,101.2,159.66,101.2,159.76Z"/><path class="cls-4" d="M149,111.93a45.76,45.76,0,0,1-5.37,12.42c-7.08,1.62-14.08,3.59-21,5.64-4.53,1.34-9,2.82-13.53,4.15v-5.48a42.49,42.49,0,0,0,6.91-1.19,3.93,3.93,0,1,0-2-7.62,35.79,35.79,0,0,1-8.86,1.11h0s0,0,0,0a35.73,35.73,0,0,1-8.86-1.11,3.93,3.93,0,1,0-2,7.62,42.68,42.68,0,0,0,6.91,1.19v7.55l-.23,0a119,119,0,0,1-19.61,2.66,45.41,45.41,0,1,1,67.66-27Z"/><path class="cls-5" d="M179.26,185.61l-.45.41h0a106.41,106.41,0,0,1-138.5,4.91l-.51-.42c1-.61,1.7-1.45,2.71-2l4-2.19,8-4.37q7.32-4,14.69-7.83a.17.17,0,0,0,.18.06q.7-.19,1.41-.36h0l.5-.11a36.35,36.35,0,0,1,15.16.13A68.8,68.8,0,0,1,99.29,178h0c4.6,1.92,9.09,4.16,13.45,6.23l1,.48h0c1.57.74,3.15,1.46,4.75,2.14h0a69.17,69.17,0,0,0,14,4.57,68.27,68.27,0,0,0,22.64.26A136.14,136.14,0,0,0,179.26,185.61Z"/><path class="cls-6" d="M1.22,123.51c.14.95.31,1.88.48,2.82C1.53,125.4,1.37,124.45,1.22,123.51Z"/><path class="cls-7" d="M99.88,160.27l-.62.27-.06,0-1.51.64h0c-2.18.93-4.33,1.91-6.48,2.87q-8.28,3.74-16.36,7.86l-3.48,1.78-1.23.64h0c-15,8.12-29.56,16.38-29.81,16.59l-.51-.42c-.63-.51-1.26-1-1.88-1.56-2.38-2-4.66-4.12-6.85-6.33-.56-.56-1.1-1.12-1.64-1.69-.34-.35-.67-.71-1-1.07l-1-1.06c-.71-.79-1.41-1.59-2.09-2.41-.36-.42-.72-.84-1.06-1.27l-.19-.23c-.4-.48-.78-1-1.16-1.44-.21-.26-.42-.53-.62-.8l-.83-1.08c-.37-.5-.75-1-1.11-1.51s-.74-1-1.09-1.53-.61-.87-.91-1.32-.72-1.06-1.07-1.6c-.22-.33-.43-.67-.65-1-.37-.59-.74-1.18-1.11-1.79-.26-.42-.51-.85-.76-1.28s-.46-.77-.68-1.16c-.35-.61-.7-1.23-1-1.86l-.56-1c-.25-.48-.51-1-.75-1.45a2.55,2.55,0,0,1-.17-.33c-.29-.56-.57-1.13-.85-1.7q-.15-.3-.3-.63-.36-.74-.69-1.47c-.16-.33-.31-.66-.44-1s-.44-1-.64-1.45c-.59-1.34-1.14-2.7-1.66-4.07-.09-.21-.17-.43-.24-.64a104.14,104.14,0,0,1-3.38-10.71c-.27-1-.51-2-.74-3-.19-.83-.37-1.65-.54-2.48-.11-.55-.21-1.1-.31-1.65,0-.18-.07-.36-.1-.54s-.1-.52-.14-.78c-.12-.68-.23-1.36-.34-2-.07-.42-.13-.85-.18-1.28-.19-1.42-.56-4.87-.58-5.16.2.1,26.09,21.67,34.92,28,6.47,4.64,12.08,8.32,19.95,11.49a75.62,75.62,0,0,0,21.75,5.21,74.05,74.05,0,0,0,10.21.18c2.16-.11,4.32-.31,6.46-.61S97.86,160.72,99.88,160.27Z"/><path class="cls-8" d="M210.54,131.85l0,.12c0,.21-.09.41-.15.61a107,107,0,0,1-31.1,53l-.45.41h0c-14.55,4.92-30.12,8.75-45.51,6.18a64.44,64.44,0,0,1-14.43-4.42c-2.2-.92-4.37-1.92-6.54-2.95-5.08-2.41-10.1-5-15.29-7h0c-1.12-.45-2.25-.88-3.39-1.28a56,56,0,0,0-6.86-2,37.88,37.88,0,0,0-16.65-.21h0a5.66,5.66,0,0,0-.56.13l.3-.16,1-.49h0c8.78-4.54,17.7-8.81,26.82-12.62h0l1.51-.64.06,0,1.94-.78c.66-.27,1.31-.53,2-.78s1.25-.48,1.88-.72l1.43-.51c.86-.31,1.72-.6,2.58-.88,2.41-.81,4.85-1.55,7.29-2.24h0c1.63-.47,3.27-.92,4.9-1.35,1.47-.4,3-.78,4.43-1.16,4.54-1.15,9.11-2.19,13.68-3.17,12.13-2.59,24.34-4.73,36.49-7.25,6.13-1.27,12.25-2.63,18.32-4.19,3.07-.78,6.12-1.61,9.16-2.51,1.88-.55,3.82-.61,5.53-1.68a7,7,0,0,0,1.59-1.36Z"/><path class="cls-9" d="M116,127.47a42.49,42.49,0,0,1-6.91,1.19v28.2c-.86.28-1.72.58-2.58.88l-1.43.52c-.63.24-1.26.47-1.88.72s-1.31.51-2,.78c0-.1,0-.21,0-.31V128.66a42.68,42.68,0,0,1-6.91-1.19,3.93,3.93,0,1,1,2-7.62A35.73,35.73,0,0,0,105.1,121s0,0,0,0h0a35.79,35.79,0,0,0,8.86-1.11,3.93,3.93,0,1,1,2,7.62Z"/></g></g></svg>