<svg xmlns="http://www.w3.org/2000/svg" viewBox="0 0 859.61 229.27"><defs><style>.cls-1{fill:#fff;}.cls-2{fill:#b7d5eb;}.cls-3,.cls-4{fill:#ffdb57;}.cls-4{stroke:#ffdb57;stroke-miterlimit:10;stroke-width:5px;}.cls-5{fill:#3992c6;}.cls-6{fill:#e77e7e;}.cls-10,.cls-7{fill:#80badc;}.cls-8{fill:#54a5d4;}.cls-9{fill:#feeaab;}.cls-10{font-size:142.43px;font-family:Gabarito-ExtraBold, Gabarito;font-weight:800;}.cls-11{letter-spacing:-0.01em;}.cls-12{letter-spacing:-0.02em;}.cls-13{letter-spacing:0em;}.cls-14,.cls-15{fill:#3a92c6;}.cls-14{letter-spacing:0em;}</style></defs><g id="Layer_2" data-name="Layer 2"><g id="Layer_1-2" data-name="Layer 1"><path class="cls-1" d="M228.44,114.63a115.17,115.17,0,0,1-3.07,26.51l0,.13c-.06.23-.1.44-.16.65a114.53,114.53,0,0,1-33.29,56.76l-.48.44h0a113.9,113.9,0,0,1-148.24,5.26q-.27-.21-.54-.45c-.68-.55-1.35-1.1-2-1.67-2.55-2.14-5-4.41-7.33-6.78-.6-.6-1.18-1.2-1.76-1.81l-1.08-1.14-1-1.14c-.76-.84-1.51-1.7-2.24-2.57-.38-.45-.76-.9-1.13-1.36a2.19,2.19,0,0,1-.2-.25c-.42-.51-.84-1-1.25-1.54-.22-.28-.45-.57-.66-.86L23,183.67c-.39-.54-.8-1.07-1.19-1.62s-.79-1.08-1.16-1.64-.65-.93-1-1.41-.77-1.13-1.14-1.71c-.24-.36-.46-.72-.7-1.08-.39-.64-.79-1.27-1.18-1.92-.28-.45-.55-.91-.82-1.37s-.49-.82-.73-1.24c-.37-.65-.75-1.32-1.11-2l-.6-1.1c-.27-.52-.54-1-.8-1.56a1.64,1.64,0,0,1-.18-.35c-.31-.6-.61-1.21-.91-1.82-.11-.21-.22-.44-.32-.67-.26-.53-.51-1.05-.74-1.58-.17-.35-.33-.7-.47-1.06-.24-.51-.47-1-.69-1.55-.63-1.43-1.22-2.89-1.78-4.35-.09-.23-.18-.46-.25-.69A113.07,113.07,0,0,1,3.66,143.5c-.29-1.08-.55-2.16-.79-3.26-.2-.88-.4-1.76-.58-2.65-.12-.59-.22-1.18-.33-1.77,0-.19-.08-.38-.11-.57s-.11-.56-.15-.84a.88.88,0,0,1,0-.16c-.12-.67-.24-1.35-.34-2-.08-.45-.17-.91-.22-1.37-.19-1.53-.35-3.06-.53-4.61,0-.3-.08-.62-.1-.93h0C.16,121.79,0,118.24,0,114.63,0,51.32,51.14,0,114.22,0S228.44,51.32,228.44,114.63Z"/><path class="cls-2" d="M106.9,171.54c-.22.09-.44.18-.66.29l-.06,0c-2,.44-4,.81-6,1.1-2.17.31-4.34.55-6.52.69A80.76,80.76,0,0,1,61,169a79.9,79.9,0,0,1-11.16-5,126.42,126.42,0,0,1-10.73-6.84c-6.86-4.69-13.49-9.71-19.93-14.93S6.69,131.68.59,126.24c0,0-.08-.63-.1-.94l.67.32h0A278,278,0,0,0,40.07,141.8a167.14,167.14,0,0,0,22.23,5.53,100.91,100.91,0,0,0,10.92,1.28,115.43,115.43,0,0,0,12.06.17l1.79-.08,1.08.65c8,4.62,12.74,12.08,12.74,20v1.35a3.91,3.91,0,0,1-.55,2C102.55,172.39,104.74,172,106.9,171.54Z"/><path class="cls-2" d="M225.34,141.12c0,.15-.06.3-.1.46l-.09.32a8.53,8.53,0,0,1-5.09,2.29,27.15,27.15,0,0,0-4.17,1.14c-1.57.43-3.14.87-4.73,1.29-6.48,1.72-13,3.23-19.61,4.64-12.86,2.72-25.82,5-38.71,7.68-6.21,1.29-12.39,2.69-18.55,4.25q-4.93,1.25-9.83,2.69c-2.59.76-5.16,1.56-7.73,2.39l-2.4.82c-2,.68-4,1.42-6,2.22a.38.38,0,0,0-.13.06h0c-.64.16-1.31.31-2,.45l2.08-.84c0-.11,0-.21,0-.33V145.79c2.83-.65,5.64-1.41,8.42-2.22V167.9c2.58-.87,5.19-1.66,7.8-2.4h0c1.26-6.42,5.68-12.28,12.34-16.14a48.42,48.42,0,0,0,16.87-16.26l.67-.16c3.3-.76,6.66-1.49,10-2.09a117.28,117.28,0,0,1,13.92-1.54c18.46-.76,34.82,6.42,43.73,10.34C223.53,140.27,224.68,140.81,225.34,141.12Z"/><path class="cls-3" d="M127.28,201.36c0-.12,0-.24-.06-.36a4,4,0,0,0-.33-1h0a4.25,4.25,0,0,0-4.25-2.38l-.86.09c-.52.05-1,.1-1.56.13h0a96.45,96.45,0,0,1-17.82-.22,4.21,4.21,0,0,0-.87,8.38,104.6,104.6,0,0,0,22,0A4.22,4.22,0,0,0,127.28,201.36Zm5.23-17.13a4.22,4.22,0,0,0-4.93-3.35,80.29,80.29,0,0,1-30.12,0,4.22,4.22,0,0,0-4.93,3.35,4.17,4.17,0,0,0,.06,1.83,4.45,4.45,0,0,0,.28.77,4.2,4.2,0,0,0,3,2.33q4,.75,8,1.14h0c.82.09,1.66.16,2.48.22h0c2.06.14,4.11.21,6.17.21a88.85,88.85,0,0,0,16.63-1.57A4.22,4.22,0,0,0,132.51,184.23ZM161.87,78.7a57,57,0,1,0-98.71,57.17,57.33,57.33,0,0,0,10.06,12.75,56.39,56.39,0,0,0,10.71,8c5.34,3.1,8.53,7.83,8.53,12.67v1.35a4.26,4.26,0,0,0,1,2.69,3.33,3.33,0,0,0,.25.28,4.22,4.22,0,0,0,3,1.24A4.16,4.16,0,0,0,100.2,173a1.65,1.65,0,0,0,.15-.25,4.16,4.16,0,0,0,.53-2v-1.35c0-7.87-4.75-15.33-12.73-20l-1.08-.66a48.67,48.67,0,1,1,49.8.66c-6.66,3.86-11.08,9.71-12.34,16.14h0a2.2,2.2,0,0,0-.07.37,18.89,18.89,0,0,0-.31,3.44v1.35a4.22,4.22,0,0,0,8.43,0v-1.35a12.34,12.34,0,0,1,1.71-6.13l.23-.37h0a18.77,18.77,0,0,1,6.58-6.16A57.1,57.1,0,0,0,161.87,78.7ZM114,168.84c-.51.17-1,.36-1.53.55-.67.25-1.35.5-2,.76l-2.11.84c0,.11,0,.21,0,.32a4.21,4.21,0,0,0,8.37-.65v-2.77C115.8,168.19,114.88,168.51,114,168.84Z"/><path class="cls-4" d="M153.74,133.09a48.33,48.33,0,0,1-16.87,16.26c-6.66,3.86-11.08,9.71-12.34,16.14h0c-2.61.74-5.23,1.53-7.8,2.39V143.57c4.84-1.42,9.64-3,14.48-4.44C138.67,136.94,146.16,134.82,153.74,133.09Z"/><path class="cls-4" d="M108.32,171l-2.08.84-.06,0,.72-.31c-2.16.48-4.35.86-6.55,1.16a4.16,4.16,0,0,0,.53-2v-1.35c0-7.87-4.75-15.33-12.73-20l-1.08-.66a126.88,126.88,0,0,0,21-2.85l.24-.06v24.88C108.3,170.77,108.31,170.88,108.32,171Z"/><path class="cls-4" d="M159.48,119.8a48.8,48.8,0,0,1-5.74,13.29c-7.58,1.73-15.07,3.85-22.53,6-4.84,1.44-9.64,3-14.48,4.44v-5.86a45.28,45.28,0,0,0,7.4-1.28,4.21,4.21,0,0,0-2.09-8.16,38,38,0,0,1-9.48,1.2h-.07a38,38,0,0,1-9.49-1.2,4.21,4.21,0,1,0-2.09,8.16,45.16,45.16,0,0,0,7.39,1.28v8.07l-.24.06a126.88,126.88,0,0,1-21,2.85,48.61,48.61,0,1,1,72.41-28.89Z"/><path class="cls-5" d="M191.86,198.66l-.48.44h0a113.89,113.89,0,0,1-148.24,5.25,5.36,5.36,0,0,1-.54-.45c1-.65,1.82-1.55,2.9-2.14l4.3-2.34,8.57-4.68c5.23-2.82,10.46-5.63,15.73-8.38a.16.16,0,0,0,.19.07c.5-.14,1-.27,1.51-.39h0l.54-.12a38.87,38.87,0,0,1,16.22.14,73.52,73.52,0,0,1,13.68,4.44h0c4.93,2.06,9.73,4.46,14.4,6.67l1.08.52h0c1.68.79,3.37,1.56,5.09,2.29h0a74.47,74.47,0,0,0,15,4.89,73.26,73.26,0,0,0,24.23.28A145.87,145.87,0,0,0,191.86,198.66Z"/><path class="cls-6" d="M1.31,132.19c.14,1,.33,2,.51,3C1.63,134.21,1.46,133.21,1.31,132.19Z"/><path class="cls-7" d="M106.9,171.54c-.22.09-.44.18-.66.29l-.06,0-1.62.68h0c-2.34,1-4.64,2.05-6.94,3.07q-8.86,4-17.51,8.42l-3.72,1.9-1.32.69h0C59,195.3,43.4,204.15,43.13,204.36a5.36,5.36,0,0,1-.54-.45c-.68-.54-1.35-1.1-2-1.67q-3.82-3.21-7.34-6.77c-.6-.6-1.17-1.2-1.75-1.81-.37-.37-.72-.76-1.08-1.14l-1-1.14c-.76-.84-1.51-1.7-2.24-2.58-.38-.45-.77-.9-1.13-1.36-.08-.08-.14-.16-.21-.24l-1.24-1.54c-.22-.28-.45-.57-.66-.86s-.6-.77-.89-1.16-.8-1.07-1.19-1.61S21,181,20.65,180.39s-.66-.93-1-1.41-.77-1.14-1.14-1.72c-.24-.35-.46-.71-.7-1.08l-1.19-1.91-.81-1.37c-.25-.41-.49-.83-.73-1.24-.37-.66-.75-1.32-1.11-2-.2-.36-.4-.72-.6-1.1s-.55-1-.8-1.55a2.89,2.89,0,0,1-.19-.35c-.31-.6-.61-1.21-.9-1.82-.11-.22-.22-.44-.33-.68-.25-.52-.5-1-.73-1.57-.18-.35-.34-.71-.48-1.06-.23-.51-.47-1-.68-1.55q-.94-2.16-1.78-4.36c-.09-.22-.18-.46-.25-.68a108.41,108.41,0,0,1-3.62-11.47c-.29-1.08-.55-2.16-.79-3.25-.21-.89-.4-1.77-.58-2.65q-.18-.88-.33-1.77c-.05-.19-.08-.39-.11-.58s-.11-.55-.15-.83c-.13-.73-.25-1.46-.36-2.2-.08-.45-.14-.91-.2-1.37-.2-1.52-.6-5.21-.62-5.52.22.11,27.93,23.2,37.38,30,6.92,5,12.93,8.91,21.35,12.3a81,81,0,0,0,23.28,5.57,79.78,79.78,0,0,0,10.93.2c2.31-.12,4.62-.34,6.91-.66S104.74,172,106.9,171.54Z"/><path class="cls-8" d="M225.34,141.12l0,.13c-.05.22-.09.44-.16.65a114.5,114.5,0,0,1-33.29,56.76l-.48.44h0c-15.57,5.26-32.24,9.36-48.71,6.61A68.82,68.82,0,0,1,127.22,201c-2.36-1-4.68-2.05-7-3.15-5.44-2.58-10.81-5.31-16.37-7.54h0c-1.2-.48-2.41-.94-3.63-1.37a59.24,59.24,0,0,0-7.34-2.1,40.6,40.6,0,0,0-17.82-.22h0a4.34,4.34,0,0,0-.6.14l.32-.17c.34-.19.68-.36,1-.53h0c9.4-4.86,19-9.43,28.71-13.51h0l1.62-.68.06,0,2.08-.84c.7-.29,1.4-.57,2.1-.83s1.34-.52,2-.77c.51-.19,1-.38,1.53-.55.92-.33,1.84-.64,2.76-.94,2.58-.87,5.19-1.66,7.8-2.4h0q2.63-.75,5.25-1.44c1.57-.43,3.15-.84,4.74-1.25,4.86-1.23,9.75-2.34,14.64-3.39,13-2.77,26.05-5.06,39.06-7.76,6.56-1.36,13.11-2.81,19.6-4.48,3.29-.84,6.55-1.73,9.81-2.69,2-.59,4.09-.65,5.92-1.8a7.46,7.46,0,0,0,1.7-1.45Z"/><path class="cls-9" d="M124.13,136.43a45.28,45.28,0,0,1-7.4,1.28v30.18c-.93.3-1.85.62-2.76,1-.51.17-1,.36-1.53.55-.67.25-1.35.5-2,.76l-2.11.84c0-.11,0-.22,0-.33V137.71a45.16,45.16,0,0,1-7.39-1.28,4.21,4.21,0,1,1,2.09-8.16,38,38,0,0,0,9.49,1.2h.07a38,38,0,0,0,9.48-1.2,4.21,4.21,0,0,1,2.09,8.16Z"/><text class="cls-10" transform="translate(281.93 186.04)">Li<tspan class="cls-11" x="107.39" y="0">t</tspan><tspan x="164.93" y="0">e</tspan><tspan class="cls-12" x="240.7" y="0">r</tspan><tspan class="cls-13" x="290.97" y="0">a</tspan><tspan class="cls-14" x="363.9" y="0">s</tspan><tspan class="cls-15" x="428.84" y="0">ea</tspan></text></g></g></svg>